# Optimized Metal Bucket Model for JohAR Mobile AR
# Vertices: 531, Faces: 1054
v 0.04192 0.23346 -0.12901
v 0.06311 0.23193 -0.12387
v 0.04296 0.23193 -0.13221
v 0.06065 0.22723 -0.11903
v 0.06268 0.22838 -0.12303
v 0.08116 0.22838 -0.11171
v 0.04517 0.00531 -0.08864
v 0.04120 0.23067 -0.12680
v 0.06053 0.23067 -0.11880
v 0.06159 0.23346 -0.12087
v 0.07837 0.23067 -0.10787
v 0.07973 0.23346 -0.10975
v 0.08171 0.23193 -0.11247
v 0.09763 0.22838 -0.09763
v 0.09428 0.23067 -0.09428
v 0.09592 0.23346 -0.09592
v 0.07035 0.00531 -0.07035
v 0.09830 0.23193 -0.09830
v 0.11247 0.23193 -0.08171
v 0.11171 0.22838 -0.08116
v 0.10975 0.23346 -0.07973
v 0.10787 0.23067 -0.07837
v 0.12387 0.23193 -0.06311
v 0.11903 0.22723 -0.06065
v 0.12303 0.22838 -0.06268
v 0.12087 0.23346 -0.06159
v 0.11880 0.23067 -0.06053
v 0.12901 0.23346 -0.04192
v 0.13221 0.23193 -0.04296
v 0.13132 0.22838 -0.04267
v 0.12680 0.23067 -0.04120
v 0.13398 0.23346 -0.02122
v 0.13731 0.23193 -0.02175
v 0.13638 0.22838 -0.02160
v 0.13169 0.23067 -0.02086
v 0.13333 0.23067 -0.00000
v -0.14312 0.23252 -0.01063
v -0.13294 0.22290 0.00000
v -0.14636 0.24237 -0.01126
v -0.14444 0.24279 -0.01044
v -0.14312 0.23252 0.01063
v -0.14444 0.24279 0.01044
v -0.14696 0.24769 0.00956
v -0.14501 0.24762 -0.00885
v -0.14555 0.25239 0.00000
v -0.14541 0.25113 -0.00477
v -0.14737 0.25153 -0.00516
v -0.14541 0.25113 0.00477
v -0.14501 0.24762 0.00885
v -0.14737 0.25153 0.00516
v 0.14312 0.23252 -0.01063
v 0.13294 0.22290 -0.00000
v 0.14636 0.24237 -0.01126
v 0.14312 0.23252 0.01063
v 0.14444 0.24279 -0.01044
v 0.14444 0.24279 0.01044
v 0.14696 0.24769 -0.00956
v 0.14500 0.23179 0.01147
v 0.13145 0.21904 0.01163
v 0.14696 0.24769 0.00956
v 0.14501 0.24762 -0.00885
v 0.14541 0.25113 -0.00477
v 0.14555 0.25239 -0.00000
v 0.14501 0.24762 0.00885
v 0.14541 0.25113 0.00477
v -0.09464 0.00000 -0.03075
v -0.09829 0.00000 -0.01557
v -0.08051 0.00000 -0.05849
v -0.07036 0.00000 -0.07036
v 0.05849 0.00000 -0.08051
v -0.03075 0.00000 -0.09464
v 0.04518 0.00000 -0.08866
v 0.07036 0.00000 -0.07036
v 0.09464 0.00000 -0.03075
v 0.09464 0.00000 0.03075
v 0.08866 0.00000 -0.04518
v 0.09951 0.00000 -0.00000
v 0.05849 0.00000 0.08051
v 0.08051 0.00000 0.05849
v 0.07036 0.00000 0.07036
v 0.03075 0.00000 0.09464
v 0.04518 0.00000 0.08866
v -0.01557 0.00000 0.09829
v -0.04518 0.00000 0.08866
v -0.13808 0.22838 0.00000
v -0.13638 0.22838 0.02160
v -0.12705 0.22723 0.04128
v -0.13731 0.23193 0.02175
v -0.13132 0.22838 0.04267
v -0.12303 0.22838 0.06268
v -0.13221 0.23193 0.04296
v -0.13398 0.23346 0.02122
v -0.13565 0.23346 0.00000
v -0.12387 0.23193 0.06311
v -0.11171 0.22838 0.08116
v -0.12901 0.23346 0.04192
v -0.13169 0.23067 0.02086
v -0.12680 0.23067 0.04120
v -0.13333 0.23067 0.00000
v -0.09826 0.00531 0.01556
v -0.12087 0.23346 0.06159
v -0.11247 0.23193 0.08171
v -0.11880 0.23067 0.06053
v -0.09763 0.22838 0.09763
v -0.09462 0.00531 0.03074
v -0.10787 0.23067 0.07837
v -0.10975 0.23346 0.07973
v -0.09830 0.23193 0.09830
v -0.08116 0.22838 0.11171
v -0.08171 0.23193 0.11247
v -0.08048 0.00531 0.05848
v -0.09428 0.23067 0.09428
v -0.09592 0.23346 0.09592
v -0.07973 0.23346 0.10975
v -0.06311 0.23193 0.12387
v -0.06268 0.22838 0.12303
v -0.04128 0.22723 0.12705
v -0.07837 0.23067 0.10787
v -0.06159 0.23346 0.12087
v -0.04296 0.23193 0.13221
v -0.04192 0.23346 0.12901
v -0.04267 0.22838 0.13132
v -0.06053 0.23067 0.11880
v -0.02160 0.22838 0.13638
v -0.02175 0.23193 0.13731
v -0.02122 0.23346 0.13398
v -0.04120 0.23067 0.12680
v -0.03074 0.00531 0.09462
v 0.00000 0.23193 0.13902
v 0.00000 0.22838 0.13808
v -0.02086 0.23067 0.13169
v 0.00000 0.23346 0.13565
v 0.02090 0.22723 0.13195
v 0.02160 0.22838 0.13638
v 0.00000 0.23067 0.13333
v 0.02175 0.23193 0.13731
v 0.02122 0.23346 0.13398
v 0.02086 0.23067 0.13169
v 0.04128 0.22723 0.12705
v 0.04267 0.22838 0.13132
v 0.01556 0.00531 0.09826
v 0.04296 0.23193 0.13221
v 0.04120 0.23067 0.12680
v 0.04192 0.23346 0.12901
v 0.06268 0.22838 0.12303
v 0.06311 0.23193 0.12387
v 0.08116 0.22838 0.11171
v 0.06053 0.23067 0.11880
v 0.04517 0.00531 0.08864
v 0.06159 0.23346 0.12087
v 0.07837 0.23067 0.10787
v 0.08171 0.23193 0.11247
v 0.07973 0.23346 0.10975
v 0.09763 0.22838 0.09763
v 0.05848 0.00531 0.08048
v 0.09428 0.23067 0.09428
v 0.09592 0.23346 0.09592
v 0.09830 0.23193 0.09830
v 0.07035 0.00531 0.07035
v 0.10975 0.23346 0.07973
v 0.11171 0.22838 0.08116
v 0.11247 0.23193 0.08171
v 0.10808 0.22723 0.07852
v 0.10787 0.23067 0.07837
v 0.12087 0.23346 0.06159
v 0.12387 0.23193 0.06311
v 0.11903 0.22723 0.06065
v 0.12303 0.22838 0.06268
v 0.08864 0.00531 0.04517
v 0.11880 0.23067 0.06053
v 0.12901 0.23346 0.04192
v 0.13221 0.23193 0.04296
v 0.13132 0.22838 0.04267
v 0.12680 0.23067 0.04120
v 0.09462 0.00531 0.03074
v 0.13398 0.23346 0.02122
v 0.13731 0.23193 0.02175
v 0.13638 0.22838 0.02160
v 0.09826 0.00531 0.01556
v 0.13169 0.23067 0.02086
v 0.13902 0.23193 -0.00000
v 0.13565 0.23346 -0.00000
v 0.13808 0.22838 -0.00000
v -0.09949 0.00531 0.00000
v -0.08864 0.00531 0.04517
v -0.05848 0.00531 0.08048
v -0.07035 0.00531 0.07035
v -0.04517 0.00531 0.08864
v 0.08048 0.00531 0.05848
v 0.03074 0.00531 0.09462
v -0.00000 0.00531 0.09949
v -0.01556 0.00531 0.09826
v 0.09949 0.00531 -0.00000
v 0.08048 0.00531 -0.05848
v -0.14500 0.23179 0.01147
v -0.14636 0.24237 0.01126
v -0.14763 0.24210 0.00938
v -0.14621 0.23129 0.00955
v -0.13145 0.21904 0.01163
v -0.13194 0.21622 0.00000
v -0.14621 0.23129 -0.00955
v -0.13122 0.21654 -0.00969
v -0.14812 0.24658 0.00793
v -0.14846 0.24975 0.00428
v -0.14763 0.24210 -0.00938
v -0.14859 0.25089 0.00000
v -0.14500 0.23179 -0.01147
v -0.14752 0.25291 0.00000
v -0.14846 0.24975 -0.00428
v -0.14696 0.24769 -0.00956
v -0.14812 0.24658 -0.00793
v 0.09462 0.00531 -0.03074
v 0.09826 0.00531 -0.01556
v 0.08864 0.00531 -0.04517
v 0.03074 0.00531 -0.09462
v 0.05848 0.00531 -0.08048
v -0.08048 0.00531 -0.05848
v -0.09826 0.00531 -0.01556
v -0.00000 0.00531 -0.09949
v 0.01556 0.00531 -0.09826
v -0.08864 0.00531 -0.04517
v -0.01556 0.00531 -0.09826
v -0.05848 0.00531 -0.08048
v -0.04517 0.00531 -0.08864
v -0.01557 0.00000 -0.09829
v -0.06065 0.22723 -0.11903
v -0.04518 0.00000 -0.08866
v -0.07852 0.22723 -0.10808
v -0.05849 0.00000 -0.08051
v -0.08866 0.00000 -0.04518
v -0.12705 0.22723 -0.04128
v -0.12976 0.21246 -0.02055
v -0.09951 0.00000 0.00000
v -0.13138 0.21246 0.00000
v -0.13145 0.21904 -0.01163
v -0.13195 0.22199 -0.01089
v -0.12976 0.21246 0.02055
v -0.13122 0.21654 0.00969
v -0.09829 0.00000 0.01557
v -0.09464 0.00000 0.03075
v -0.13195 0.22723 0.02090
v -0.13195 0.22201 0.01090
v -0.11903 0.22723 0.06065
v -0.08866 0.00000 0.04518
v -0.10808 0.22723 0.07852
v -0.08051 0.00000 0.05849
v -0.09446 0.22723 0.09446
v -0.07036 0.00000 0.07036
v -0.07852 0.22723 0.10808
v -0.05849 0.00000 0.08051
v -0.06065 0.22723 0.11903
v -0.03075 0.00000 0.09464
v -0.02090 0.22723 0.13195
v -0.00000 0.00000 0.09951
v 0.00000 0.22723 0.13359
v 0.01557 0.00000 0.09829
v 0.06065 0.22723 0.11903
v 0.07852 0.22723 0.10808
v 0.09446 0.22723 0.09446
v 0.08866 0.00000 0.04518
v 0.12705 0.22723 0.04128
v 0.12976 0.21246 0.02055
v 0.09829 0.00000 0.01557
v 0.13195 0.22723 0.02090
v 0.13138 0.21246 -0.00000
v 0.13122 0.21654 0.00969
v 0.13194 0.21622 -0.00000
v 0.13195 0.22201 0.01090
v 0.13359 0.22723 -0.00000
v 0.13122 0.21654 -0.00969
v 0.12976 0.21246 -0.02055
v 0.09829 0.00000 -0.01557
v 0.13145 0.21904 -0.01163
v 0.13195 0.22199 -0.01089
v 0.13195 0.22723 -0.02090
v 0.12705 0.22723 -0.04128
v 0.08051 0.00000 -0.05849
v 0.10808 0.22723 -0.07852
v 0.09446 0.22723 -0.09446
v 0.07852 0.22723 -0.10808
v 0.03075 0.00000 -0.09464
v 0.02090 0.22723 -0.13195
v 0.01557 0.00000 -0.09829
v -0.00000 0.00000 -0.09951
v -0.13195 0.22723 -0.02090
v -0.13359 0.22723 0.00000
v -0.13638 0.22838 -0.02160
v -0.13902 0.23193 0.00000
v -0.13132 0.22838 -0.04267
v -0.13731 0.23193 -0.02175
v -0.12303 0.22838 -0.06268
v -0.11903 0.22723 -0.06065
v -0.13221 0.23193 -0.04296
v -0.13398 0.23346 -0.02122
v -0.11171 0.22838 -0.08116
v -0.12387 0.23193 -0.06311
v -0.12901 0.23346 -0.04192
v -0.10808 0.22723 -0.07852
v -0.12680 0.23067 -0.04120
v -0.13169 0.23067 -0.02086
v -0.09763 0.22838 -0.09763
v -0.11247 0.23193 -0.08171
v -0.09446 0.22723 -0.09446
v -0.10975 0.23346 -0.07973
v -0.12087 0.23346 -0.06159
v -0.11880 0.23067 -0.06053
v -0.09462 0.00531 -0.03074
v -0.10787 0.23067 -0.07837
v -0.09830 0.23193 -0.09830
v -0.09592 0.23346 -0.09592
v -0.09428 0.23067 -0.09428
v -0.08116 0.22838 -0.11171
v -0.08171 0.23193 -0.11247
v -0.07973 0.23346 -0.10975
v -0.06311 0.23193 -0.12387
v -0.06268 0.22838 -0.12303
v -0.07035 0.00531 -0.07035
v -0.07837 0.23067 -0.10787
v -0.06159 0.23346 -0.12087
v -0.04128 0.22723 -0.12705
v -0.04296 0.23193 -0.13221
v -0.04192 0.23346 -0.12901
v -0.04267 0.22838 -0.13132
v -0.06053 0.23067 -0.11880
v -0.04120 0.23067 -0.12680
v -0.02122 0.23346 -0.13398
v -0.02175 0.23193 -0.13731
v -0.02160 0.22838 -0.13638
v -0.02090 0.22723 -0.13195
v -0.03074 0.00531 -0.09462
v -0.00000 0.23193 -0.13902
v -0.00000 0.22838 -0.13808
v -0.02086 0.23067 -0.13169
v -0.00000 0.23346 -0.13565
v -0.00000 0.22723 -0.13359
v -0.00000 0.23067 -0.13333
v 0.02160 0.22838 -0.13638
v 0.02175 0.23193 -0.13731
v 0.02122 0.23346 -0.13398
v 0.02086 0.23067 -0.13169
v 0.04128 0.22723 -0.12705
v 0.04267 0.22838 -0.13132
v 0.14763 0.24210 0.00938
v 0.14636 0.24237 0.01126
v 0.14621 0.23129 0.00955
v 0.14621 0.23129 -0.00955
v 0.14812 0.24658 0.00793
v 0.14737 0.25153 0.00516
v 0.14763 0.24210 -0.00938
v 0.14859 0.25089 -0.00000
v 0.14846 0.24975 0.00428
v 0.14500 0.23179 -0.01147
v 0.14752 0.25291 -0.00000
v 0.14846 0.24975 -0.00428
v 0.14737 0.25153 -0.00516
v 0.14812 0.24658 -0.00793
v -0.15072 0.24285 -0.00356
v -0.15877 0.25487 -0.00295
v -0.15560 0.25600 -0.00407
v -0.15367 0.24116 -0.00241
v -0.15367 0.24130 0.00106
v -0.15034 0.23739 0.00122
v -0.15034 0.23725 -0.00226
v -0.14576 0.23550 -0.00219
v -0.14833 0.24027 0.00218
v -0.15072 0.24307 0.00207
v -0.15560 0.25622 0.00155
v -0.14591 0.23935 0.00222
v -0.14576 0.23563 0.00129
v -0.14081 0.23786 -0.00228
v -0.14344 0.24030 -0.00346
v -0.14081 0.23800 0.00119
v -0.14600 0.24150 -0.00069
v -0.14709 0.24192 -0.00070
v -0.14889 0.24403 -0.00079
v -0.14344 0.24052 0.00217
v -0.15364 0.25684 -0.00129
v -0.13843 0.24384 0.00096
v -0.13843 0.24370 -0.00251
v -0.14833 0.24005 -0.00345
v -0.13597 0.25568 -0.00298
v -0.14167 0.24486 0.00200
v -0.14507 0.24195 -0.00070
v -0.13597 0.25582 0.00049
v -0.13927 0.25636 -0.00409
v -0.13184 0.27334 -0.00368
v -0.14591 0.23912 -0.00341
v -0.13927 0.25658 0.00154
v -0.14368 0.24536 -0.00084
v -0.13184 0.27348 -0.00020
v -0.13510 0.27423 -0.00479
v -0.14167 0.24464 -0.00363
v -0.12609 0.29041 -0.00086
v -0.12609 0.29027 -0.00434
v -0.13510 0.27445 0.00084
v -0.14131 0.25692 -0.00129
v -0.11820 0.30641 -0.00149
v -0.12922 0.29174 0.00016
v -0.11820 0.30627 -0.00497
v -0.13711 0.27491 -0.00200
v -0.12113 0.30814 -0.00048
v -0.13115 0.29243 -0.00269
v -0.12922 0.29152 -0.00547
v -0.11096 0.32334 -0.00108
v -0.10827 0.32124 -0.00207
v -0.10827 0.32110 -0.00555
v -0.11096 0.32312 -0.00671
v -0.12113 0.30792 -0.00611
v -0.12294 0.30908 -0.00334
v -0.11262 0.32450 -0.00394
v -0.09651 0.33465 -0.00260
v -0.09890 0.33709 -0.00162
v -0.09651 0.33451 -0.00608
v -0.09890 0.33686 -0.00725
v -0.10038 0.33845 -0.00449
v -0.08514 0.34913 -0.00209
v -0.08308 0.34641 -0.00306
v -0.08642 0.35068 -0.00497
v -0.08308 0.34627 -0.00654
v -0.08514 0.34891 -0.00772
v -0.06824 0.35632 -0.00345
v -0.06993 0.35930 -0.00249
v -0.06824 0.35619 -0.00693
v -0.07098 0.36100 -0.00538
v -0.06993 0.35907 -0.00812
v -0.05432 0.36920 -0.00570
v -0.05352 0.36738 -0.00281
v -0.05223 0.36421 -0.00376
v -0.05223 0.36407 -0.00724
v -0.05352 0.36716 -0.00844
v -0.03532 0.36995 -0.00399
v -0.03620 0.37326 -0.00304
v -0.03532 0.36981 -0.00746
v -0.03674 0.37517 -0.00593
v -0.03620 0.37304 -0.00867
v -0.01853 0.37878 -0.00608
v -0.01826 0.37682 -0.00318
v -0.01781 0.37342 -0.00412
v -0.01826 0.37660 -0.00881
v -0.01781 0.37329 -0.00760
v -0.00000 0.37446 -0.00765
v -0.00000 0.37460 -0.00417
v 0.00000 0.37802 -0.00323
v -0.00000 0.38000 -0.00612
v -0.00000 0.37780 -0.00885
v 0.01853 0.37878 -0.00608
v 0.01826 0.37682 -0.00318
v 0.01781 0.37342 -0.00412
v 0.01781 0.37329 -0.00760
v 0.01826 0.37660 -0.00881
v 0.03532 0.36981 -0.00746
v 0.03532 0.36995 -0.00399
v 0.03620 0.37326 -0.00304
v 0.03674 0.37517 -0.00593
v 0.03620 0.37304 -0.00867
v 0.05432 0.36920 -0.00570
v 0.05352 0.36738 -0.00281
v 0.05223 0.36407 -0.00724
v 0.05352 0.36716 -0.00844
v 0.05223 0.36421 -0.00376
v 0.06824 0.35619 -0.00693
v 0.06824 0.35632 -0.00345
v 0.06993 0.35930 -0.00249
v 0.07098 0.36100 -0.00538
v 0.06993 0.35907 -0.00812
v 0.08642 0.35068 -0.00497
v 0.08514 0.34913 -0.00209
v 0.08308 0.34627 -0.00654
v 0.08514 0.34891 -0.00772
v 0.08308 0.34641 -0.00306
v 0.09651 0.33451 -0.00608
v 0.09651 0.33465 -0.00260
v 0.09890 0.33709 -0.00162
v 0.10038 0.33845 -0.00449
v 0.09890 0.33686 -0.00725
v 0.11262 0.32450 -0.00394
v 0.11096 0.32334 -0.00108
v 0.10827 0.32110 -0.00555
v 0.10827 0.32124 -0.00207
v 0.11096 0.32312 -0.00671
v 0.11820 0.30627 -0.00497
v 0.11820 0.30641 -0.00149
v 0.12113 0.30814 -0.00049
v 0.12294 0.30908 -0.00334
v 0.12113 0.30792 -0.00611
v 0.13115 0.29243 -0.00269
v 0.12922 0.29174 0.00016
v 0.12609 0.29027 -0.00434
v 0.12609 0.29041 -0.00086
v 0.12922 0.29152 -0.00547
v 0.13711 0.27491 -0.00200
v 0.13510 0.27445 0.00084
v 0.13510 0.27423 -0.00479
v 0.13184 0.27334 -0.00368
v 0.13184 0.27348 -0.00020
v 0.14131 0.25692 -0.00129
v 0.13927 0.25658 0.00154
v 0.13927 0.25636 -0.00409
v 0.13597 0.25582 0.00049
v 0.13597 0.25568 -0.00298
v 0.14368 0.24536 -0.00084
v 0.14167 0.24486 0.00200
v 0.13843 0.24384 0.00096
v 0.14167 0.24464 -0.00363
v 0.13843 0.24370 -0.00251
v 0.14507 0.24195 -0.00070
v 0.14344 0.24052 0.00217
v 0.14081 0.23786 -0.00228
v 0.14081 0.23800 0.00119
v 0.14344 0.24030 -0.00346
v 0.14600 0.24150 -0.00069
v 0.14591 0.23935 0.00222
v 0.14591 0.23912 -0.00341
v 0.14576 0.23563 0.00129
v 0.14576 0.23550 -0.00219
v 0.15034 0.23739 0.00122
v 0.14833 0.24027 0.00218
v 0.15034 0.23725 -0.00226
v 0.14709 0.24192 -0.00070
v 0.14833 0.24005 -0.00345
v 0.15367 0.24116 -0.00241
v 0.15367 0.24130 0.00106
v 0.15072 0.24307 0.00207
v 0.15072 0.24285 -0.00356
v 0.14889 0.24403 -0.00079
v -0.15877 0.25501 0.00052
v 0.15877 0.25501 0.00052
v 0.15364 0.25684 -0.00129
v 0.15560 0.25622 0.00155
v 0.15877 0.25487 -0.00295
v 0.15560 0.25600 -0.00407
vt 0.34870 0.31180
vt 0.37570 0.31640
vt 0.34870 0.31640
vt 0.64615 0.65945
vt 0.37570 0.32090
vt 0.40240 0.32090
vt 0.64065 0.32360
vt 0.34870 0.30720
vt 0.37570 0.30720
vt 0.37570 0.31180
vt 0.40240 0.30720
vt 0.40240 0.31180
vt 0.40240 0.31640
vt 0.42890 0.32090
vt 0.42890 0.30720
vt 0.42890 0.31180
vt 0.68715 0.30915
vt 0.42890 0.31640
vt 0.45530 0.31640
vt 0.45530 0.32090
vt 0.45530 0.31180
vt 0.45530 0.30720
vt 0.48130 0.31640
vt 0.65160 0.65945
vt 0.48130 0.32090
vt 0.48130 0.31180
vt 0.48130 0.30720
vt 0.50720 0.31180
vt 0.50720 0.31640
vt 0.50720 0.32090
vt 0.50720 0.30720
vt 0.53270 0.31180
vt 0.53270 0.31640
vt 0.53270 0.32090
vt 0.53270 0.30720
vt 0.28675 0.46865
vt 0.95960 0.29040
vt 0.67234 0.55670
vt 0.79950 0.44150
vt 0.95910 0.30460
vt 0.93020 0.29040
vt 0.93080 0.30460
vt 0.76900 0.44165
vt 0.95690 0.31110
vt 0.94500 0.31760
vt 0.95140 0.31590
vt 0.79065 0.44180
vt 0.93860 0.31590
vt 0.93310 0.31110
vt 0.77535 0.44180
vt 0.92320 0.05330
vt 0.86318 0.41444
vt 0.76165 0.21615
vt 0.95260 0.05320
vt 0.92380 0.06750
vt 0.95210 0.06740
vt 0.76420 0.21625
vt 0.79495 0.21670
vt 0.76645 0.59915
vt 0.79215 0.21625
vt 0.92610 0.07400
vt 0.93150 0.07880
vt 0.93800 0.08050
vt 0.94990 0.07390
vt 0.94440 0.07870
vt 0.54640 0.46160
vt 0.56165 0.44960
vt 0.51010 0.48350
vt 0.48955 0.49290
vt 0.76515 0.50090
vt 0.42090 0.51210
vt 0.78765 0.50735
vt 0.74385 0.49290
vt 0.68965 0.46160
vt 0.64205 0.41300
vt 0.70590 0.47300
vt 0.66205 0.43730
vt 0.62375 0.37370
vt 0.63000 0.39110
vt 0.62620 0.38170
vt 0.62160 0.36255
vt 0.62230 0.36725
vt 0.57717 0.47383
vt 0.62025 0.36725
vt 0.28625 0.48240
vt 0.52910 0.64390
vt 0.38868 0.85514
vt 0.52910 0.63930
vt 0.50100 0.64390
vt 0.47280 0.64390
vt 0.50100 0.63930
vt 0.52910 0.63470
vt 0.28625 0.47325
vt 0.47280 0.63930
vt 0.44470 0.64390
vt 0.50100 0.63470
vt 0.52910 0.63010
vt 0.50100 0.63010
vt 0.28625 0.46865
vt 0.60405 0.40250
vt 0.47280 0.63470
vt 0.44470 0.63930
vt 0.47280 0.63010
vt 0.41670 0.64390
vt 0.59285 0.39050
vt 0.44470 0.63010
vt 0.44470 0.63470
vt 0.41670 0.63930
vt 0.38880 0.64390
vt 0.38880 0.63930
vt 0.57590 0.36860
vt 0.41670 0.63010
vt 0.41670 0.63470
vt 0.38880 0.63470
vt 0.36090 0.63930
vt 0.36090 0.64390
vt 0.39845 0.82090
vt 0.38880 0.63010
vt 0.36090 0.63470
vt 0.33320 0.63930
vt 0.33320 0.63470
vt 0.33320 0.64390
vt 0.36090 0.63010
vt 0.30560 0.64390
vt 0.30560 0.63930
vt 0.30560 0.63470
vt 0.33320 0.63010
vt 0.55945 0.34005
vt 0.27810 0.63930
vt 0.27810 0.64390
vt 0.30560 0.63010
vt 0.27810 0.63470
vt 0.39410 0.82090
vt 0.25090 0.64390
vt 0.27810 0.63010
vt 0.25090 0.63930
vt 0.25090 0.63470
vt 0.25090 0.63010
vt 0.39275 0.82090
vt 0.22390 0.64390
vt 0.45353 0.33793
vt 0.22390 0.63930
vt 0.22390 0.63010
vt 0.22390 0.63470
vt 0.19700 0.64390
vt 0.19700 0.63930
vt 0.17040 0.64390
vt 0.19700 0.63010
vt 0.55130 0.34475
vt 0.19700 0.63470
vt 0.17040 0.63010
vt 0.17040 0.63930
vt 0.17040 0.63470
vt 0.14390 0.64390
vt 0.54850 0.35120
vt 0.14390 0.63010
vt 0.14390 0.63470
vt 0.14390 0.63930
vt 0.54465 0.35920
vt 0.11770 0.63470
vt 0.11770 0.64390
vt 0.11770 0.63930
vt 0.38730 0.82090
vt 0.11770 0.63010
vt 0.09170 0.63470
vt 0.09170 0.63930
vt 0.38595 0.82090
vt 0.09170 0.64390
vt 0.53300 0.37910
vt 0.09170 0.63010
vt 0.06600 0.63470
vt 0.06600 0.63930
vt 0.06600 0.64390
vt 0.06600 0.63010
vt 0.52485 0.39050
vt 0.04060 0.63470
vt 0.04060 0.63930
vt 0.04060 0.64390
vt 0.51505 0.40250
vt 0.04060 0.63010
vt 0.28675 0.47785
vt 0.28675 0.47325
vt 0.28675 0.48240
vt 0.48168 0.33420
vt 0.58350 0.37910
vt 0.56530 0.35120
vt 0.56990 0.35920
vt 0.56190 0.34475
vt 0.53955 0.36860
vt 0.44353 0.33987
vt 0.55615 0.33620
vt 0.47363 0.33793
vt 0.63908 0.33420
vt 0.70835 0.29980
vt 0.76615 0.44215
vt 0.76645 0.44155
vt 0.60820 0.57850
vt 0.60810 0.59330
vt 0.52207 0.71185
vt 0.47800 0.76420
vt 0.63400 0.59330
vt 0.44300 0.80000
vt 0.61020 0.57230
vt 0.61510 0.56800
vt 0.63380 0.57850
vt 0.62100 0.56640
vt 0.79980 0.44205
vt 0.78300 0.44190
vt 0.62690 0.56800
vt 0.79695 0.44160
vt 0.63180 0.57230
vt 0.74545 0.27785
vt 0.76110 0.26585
vt 0.72780 0.28925
vt 0.61575 0.32835
vt 0.66450 0.31715
vt 0.41740 0.29980
vt 0.36115 0.26585
vt 0.47433 0.22717
vt 0.59020 0.33120
vt 0.39690 0.28925
vt 0.44783 0.22650
vt 0.46270 0.31715
vt 0.39530 0.22143
vt 0.39655 0.51495
vt 0.14970 0.65945
vt 0.44470 0.50735
vt 0.14820 0.65945
vt 0.46770 0.50090
vt 0.52910 0.47300
vt 0.15646 0.72598
vt 0.23780 0.97200
vt 0.57545 0.43730
vt 0.26350 0.97200
vt 0.52482 0.71183
vt 0.60515 0.62720
vt 0.28950 0.97200
vt 0.44180 0.80000
vt 0.58735 0.42500
vt 0.59675 0.41300
vt 0.38534 0.85514
vt 0.60375 0.62720
vt 0.40585 0.82090
vt 0.60460 0.40160
vt 0.40435 0.82090
vt 0.61070 0.39110
vt 0.40290 0.82090
vt 0.61525 0.38170
vt 0.40140 0.82090
vt 0.61830 0.37370
vt 0.39990 0.82090
vt 0.62125 0.36255
vt 0.39700 0.82090
vt 0.58537 0.47320
vt 0.39550 0.82090
vt 0.62150 0.35965
vt 0.39135 0.82090
vt 0.39000 0.82090
vt 0.38865 0.82090
vt 0.63520 0.40160
vt 0.44838 0.85514
vt 0.72670 0.97200
vt 0.65085 0.42500
vt 0.45226 0.85514
vt 0.75100 0.97200
vt 0.68570 0.69325
vt 0.67144 0.63604
vt 0.84580 0.50860
vt 0.51893 0.74018
vt 0.68365 0.69325
vt 0.77540 0.97200
vt 0.67505 0.44960
vt 0.76270 0.59915
vt 0.84325 0.50865
vt 0.67832 0.72598
vt 0.68216 0.72598
vt 0.72405 0.48350
vt 0.65030 0.65945
vt 0.64890 0.65945
vt 0.64755 0.65945
vt 0.81110 0.51210
vt 0.64335 0.65945
vt 0.87850 0.57737
vt 0.57773 0.57803
vt 0.16000 0.72598
vt 0.27487 0.74018
vt 0.04330 0.32090
vt 0.28625 0.47785
vt 0.07150 0.32090
vt 0.04330 0.31640
vt 0.09960 0.32090
vt 0.14380 0.65945
vt 0.07150 0.31640
vt 0.04330 0.31180
vt 0.12770 0.32090
vt 0.09960 0.31640
vt 0.07150 0.31180
vt 0.14530 0.65945
vt 0.07150 0.30720
vt 0.04330 0.30720
vt 0.15570 0.32090
vt 0.12770 0.31640
vt 0.14675 0.65945
vt 0.12770 0.31180
vt 0.09960 0.31180
vt 0.09960 0.30720
vt 0.37810 0.27785
vt 0.12770 0.30720
vt 0.15570 0.31640
vt 0.15570 0.31180
vt 0.15570 0.30720
vt 0.18360 0.32090
vt 0.18360 0.31640
vt 0.18360 0.31180
vt 0.21150 0.31640
vt 0.21150 0.32090
vt 0.43940 0.30915
vt 0.18360 0.30720
vt 0.21150 0.31180
vt 0.15115 0.65945
vt 0.23920 0.31640
vt 0.23920 0.31180
vt 0.23920 0.32090
vt 0.21150 0.30720
vt 0.23920 0.30720
vt 0.26690 0.31180
vt 0.26690 0.31640
vt 0.26690 0.32090
vt 0.15265 0.65945
vt 0.51245 0.32835
vt 0.29440 0.31640
vt 0.29440 0.32090
vt 0.26690 0.30720
vt 0.29440 0.31180
vt 0.39802 0.65945
vt 0.29440 0.30720
vt 0.32160 0.32090
vt 0.32160 0.31640
vt 0.32160 0.31180
vt 0.32160 0.30720
vt 0.64475 0.65945
vt 0.34870 0.32090
vt 0.63120 0.36490
vt 0.79470 0.21615
vt 0.63130 0.37980
vt 0.60540 0.37980
vt 0.62920 0.35880
vt 0.78575 0.21640
vt 0.60550 0.36490
vt 0.61840 0.35280
vt 0.62420 0.35440
vt 0.76135 0.21675
vt 0.77820 0.21650
vt 0.61250 0.35440
vt 0.77055 0.21645
vt 0.60750 0.35880
vt 0.96770 0.67795
vt 0.97747 0.51297
vt 0.97670 0.50917
vt 0.96770 0.68700
vt 0.96770 0.68100
vt 0.95970 0.68100
vt 0.95970 0.68700
vt 0.95330 0.68700
vt 0.95970 0.67480
vt 0.96770 0.67480
vt 0.98063 0.50703
vt 0.95330 0.67480
vt 0.95330 0.68100
vt 0.94630 0.68700
vt 0.94630 0.67795
vt 0.94630 0.68100
vt 0.95330 0.66880
vt 0.95970 0.66880
vt 0.96770 0.66880
vt 0.94630 0.67480
vt 0.97045 0.42225
vt 0.93590 0.68100
vt 0.93590 0.68700
vt 0.95970 0.67795
vt 0.91120 0.68700
vt 0.93590 0.67480
vt 0.94630 0.66880
vt 0.91120 0.68100
vt 0.91120 0.67795
vt 0.87370 0.68700
vt 0.95330 0.67795
vt 0.91120 0.67480
vt 0.93590 0.66880
vt 0.87370 0.68100
vt 0.87370 0.67795
vt 0.93590 0.67795
vt 0.83640 0.68100
vt 0.83640 0.68700
vt 0.87370 0.67480
vt 0.91120 0.66880
vt 0.79910 0.68100
vt 0.83640 0.67480
vt 0.79910 0.68700
vt 0.87370 0.66880
vt 0.79910 0.67480
vt 0.83640 0.66880
vt 0.83640 0.67795
vt 0.76200 0.67480
vt 0.76200 0.68100
vt 0.76200 0.68700
vt 0.76200 0.67795
vt 0.79910 0.67795
vt 0.79910 0.66880
vt 0.76200 0.66880
vt 0.72480 0.68100
vt 0.72480 0.67480
vt 0.72480 0.68700
vt 0.72480 0.67795
vt 0.72480 0.66880
vt 0.68770 0.67480
vt 0.68770 0.68100
vt 0.68770 0.66880
vt 0.68770 0.68700
vt 0.68770 0.67795
vt 0.65070 0.68100
vt 0.65070 0.67480
vt 0.65070 0.68700
vt 0.65070 0.66880
vt 0.65070 0.67795
vt 0.61370 0.66880
vt 0.61370 0.67480
vt 0.61370 0.68100
vt 0.61370 0.68700
vt 0.61370 0.67795
vt 0.57670 0.68100
vt 0.57670 0.67480
vt 0.57670 0.68700
vt 0.57670 0.66880
vt 0.57670 0.67795
vt 0.53980 0.66880
vt 0.53980 0.67480
vt 0.53980 0.68100
vt 0.53980 0.67795
vt 0.53980 0.68700
vt 0.50280 0.68700
vt 0.50280 0.68100
vt 0.50280 0.67480
vt 0.50280 0.66880
vt 0.50280 0.67795
vt 0.46590 0.66880
vt 0.46590 0.67480
vt 0.46590 0.68100
vt 0.46590 0.68700
vt 0.46590 0.67795
vt 0.42900 0.68700
vt 0.42900 0.68100
vt 0.42900 0.67480
vt 0.42900 0.66880
vt 0.42900 0.67795
vt 0.39210 0.66880
vt 0.39210 0.67480
vt 0.39210 0.68700
vt 0.39210 0.67795
vt 0.39210 0.68100
vt 0.35520 0.68700
vt 0.35520 0.68100
vt 0.35520 0.67480
vt 0.35520 0.66880
vt 0.35520 0.67795
vt 0.31830 0.66880
vt 0.31830 0.67480
vt 0.31830 0.68700
vt 0.31830 0.67795
vt 0.31830 0.68100
vt 0.28140 0.68700
vt 0.28140 0.68100
vt 0.28140 0.67480
vt 0.28140 0.66880
vt 0.28140 0.67795
vt 0.24440 0.66880
vt 0.24440 0.67480
vt 0.24440 0.68700
vt 0.24440 0.68100
vt 0.24440 0.67795
vt 0.20750 0.68700
vt 0.20750 0.68100
vt 0.20750 0.67480
vt 0.20750 0.66880
vt 0.20750 0.67795
vt 0.17040 0.66880
vt 0.17040 0.67480
vt 0.17040 0.68700
vt 0.17040 0.68100
vt 0.17040 0.67795
vt 0.13330 0.66880
vt 0.13330 0.67480
vt 0.13330 0.67795
vt 0.13330 0.68700
vt 0.13330 0.68100
vt 0.09590 0.66880
vt 0.09590 0.67480
vt 0.09590 0.67795
vt 0.09590 0.68100
vt 0.09590 0.68700
vt 0.07150 0.66880
vt 0.07150 0.67480
vt 0.07150 0.68100
vt 0.07150 0.67795
vt 0.07150 0.68700
vt 0.06120 0.66880
vt 0.06120 0.67480
vt 0.06120 0.68700
vt 0.06120 0.68100
vt 0.06120 0.67795
vt 0.05430 0.66880
vt 0.05430 0.67480
vt 0.05430 0.67795
vt 0.05430 0.68100
vt 0.05430 0.68700
vt 0.04800 0.68100
vt 0.04800 0.67480
vt 0.04800 0.68700
vt 0.04800 0.66880
vt 0.04800 0.67795
vt 0.04020 0.68700
vt 0.04020 0.68100
vt 0.04020 0.67480
vt 0.04020 0.67795
vt 0.04020 0.66880
vt 0.97240 0.42295
vt 0.31595 0.58835
vt 0.31405 0.57685
vt 0.21577 0.61287
vt 0.21260 0.62323
vt 0.21180 0.61497
vn -0.0740 0.9751 0.2091
vn 0.3966 0.5333 -0.7472
vn 0.2882 0.4281 -0.8565
vn 0.3264 -0.6706 -0.6662
vn 0.3029 -0.7106 -0.6351
vn 0.3671 -0.7668 -0.5265
vn -0.3356 0.6734 0.6587
vn -0.2782 0.3729 0.8852
vn -0.3919 0.4600 0.7968
vn -0.1797 0.9304 0.3196
vn -0.5167 0.4096 0.7519
vn -0.1461 0.9749 0.1679
vn 0.5502 0.4280 -0.7170
vn 0.5398 -0.6497 -0.5353
vn -0.6450 0.4097 0.6450
vn 0.0180 0.9997 -0.0180
vn -0.3630 0.8582 0.3630
vn 0.6390 0.4281 -0.6390
vn 0.7170 0.4280 -0.5502
vn 0.5798 -0.7106 -0.3985
vn -0.1679 0.9749 0.1461
vn -0.7519 0.4096 0.5167
vn 0.7472 0.5333 -0.3966
vn 0.7128 -0.5977 -0.3669
vn 0.6351 -0.7106 -0.3029
vn -0.3196 0.9304 0.1797
vn -0.7968 0.4600 0.3919
vn -0.2091 0.9751 0.0740
vn 0.8565 0.4281 -0.2882
vn 0.7484 -0.6240 -0.2248
vn -0.8852 0.3729 0.2782
vn -0.1116 0.9933 0.0286
vn 0.9473 0.2714 -0.1699
vn 0.6964 -0.7107 -0.0993
vn -0.8789 0.4600 0.1265
vn -0.9463 0.3232 0.0000
vn 0.7050 0.4213 -0.5704
vn 0.0454 0.9990 -0.0006
vn -0.1494 0.1119 -0.9824
vn 0.8930 0.1970 -0.4047
vn 0.7822 0.3849 0.4899
vn 0.8599 0.2055 0.4672
vn -0.3551 0.4111 0.8396
vn 0.5418 0.5656 -0.6217
vn 0.8417 0.5400 0.0000
vn 0.6668 0.6951 -0.2687
vn -0.4947 0.7359 -0.4624
vn 0.6668 0.6951 0.2687
vn 0.5418 0.5656 0.6217
vn -0.4947 0.7359 0.4624
vn -0.7823 0.3846 -0.4900
vn -0.0454 0.9990 -0.0006
vn 0.1494 0.1119 -0.9824
vn -0.7049 0.4217 0.5703
vn -0.8599 0.2055 -0.4672
vn -0.8930 0.1970 0.4047
vn 0.3551 0.4111 -0.8396
vn 0.2903 -0.0339 0.9563
vn 0.8198 -0.2847 0.4969
vn 0.3551 0.4111 0.8396
vn -0.5418 0.5656 -0.6217
vn -0.6668 0.6951 -0.2687
vn -0.8417 0.5400 0.0000
vn -0.5418 0.5656 0.6217
vn -0.6668 0.6951 0.2687
vn -0.7032 -0.6733 -0.2285
vn -0.5071 -0.8581 -0.0803
vn -0.5371 -0.7585 -0.3691
vn -0.4020 -0.8324 -0.3815
vn 0.3968 -0.7585 -0.5170
vn -0.2285 -0.6733 -0.7032
vn 0.3110 -0.7585 -0.5727
vn 0.4020 -0.8324 -0.3815
vn 0.7032 -0.6733 -0.2285
vn 0.7032 -0.6733 0.2285
vn 0.4575 -0.8581 -0.2331
vn 0.7394 -0.6733 -0.0000
vn 0.3691 -0.7585 0.5371
vn 0.6117 -0.6368 0.4694
vn 0.4486 -0.7585 0.4727
vn 0.2285 -0.6733 0.7032
vn 0.2331 -0.8581 0.4575
vn -0.1307 -0.5492 0.8254
vn -0.2331 -0.8581 0.4575
vn -0.5544 -0.8323 0.0000
vn -0.6964 -0.7107 0.0993
vn -0.6463 -0.7375 0.1960
vn -0.9473 0.2714 0.1699
vn -0.7484 -0.6240 0.2248
vn -0.6351 -0.7106 0.3029
vn -0.8565 0.4281 0.2882
vn 0.1116 0.9933 -0.0286
vn 0.4553 0.8903 0.0000
vn -0.8009 0.4281 0.4187
vn -0.5265 -0.7668 0.3671
vn 0.2091 0.9751 -0.0740
vn 0.8789 0.4600 -0.1265
vn 0.8852 0.3729 -0.2782
vn 0.9463 0.3232 -0.0000
vn 0.7302 0.6734 -0.1157
vn 0.1949 0.9751 -0.1058
vn -0.7255 0.4281 0.5388
vn 0.7968 0.4600 -0.3919
vn -0.5353 -0.6497 0.5398
vn 0.4883 0.8582 -0.1586
vn 0.7519 0.4096 -0.5167
vn 0.1759 0.9751 -0.1350
vn -0.5857 0.5726 0.5737
vn -0.3985 -0.7106 0.5798
vn -0.5502 0.4280 0.7170
vn 0.4396 0.8324 -0.3374
vn 0.6450 0.4097 -0.6450
vn 0.0567 0.9974 -0.0452
vn 0.1461 0.9749 -0.1679
vn -0.3966 0.5333 0.7472
vn -0.3029 -0.7106 0.6351
vn -0.1792 -0.8148 0.5514
vn 0.5167 0.4096 -0.7519
vn 0.1797 0.9304 -0.3196
vn -0.2882 0.4281 0.8565
vn 0.0740 0.9751 -0.2091
vn -0.2248 -0.6240 0.7484
vn 0.3919 0.4600 -0.7968
vn -0.0993 -0.7107 0.6964
vn -0.1699 0.2714 0.9473
vn 0.0286 0.9933 -0.1116
vn 0.2782 0.3729 -0.8852
vn 0.1289 0.9088 -0.3967
vn 0.0000 0.4281 0.9037
vn 0.0000 -0.8323 0.5544
vn 0.1265 0.4600 -0.8789
vn -0.0000 0.8903 -0.4553
vn 0.1221 -0.5977 0.7923
vn 0.0993 -0.7107 0.6964
vn -0.0000 0.3232 -0.9463
vn 0.1699 0.2714 0.9473
vn -0.0286 0.9933 -0.1116
vn -0.1265 0.4600 -0.8789
vn 0.1792 -0.8148 0.5514
vn 0.2248 -0.6240 0.7484
vn -0.1307 0.5493 -0.8254
vn 0.2882 0.4281 0.8565
vn -0.2782 0.3729 -0.8852
vn -0.0740 0.9751 -0.2091
vn 0.3029 -0.7106 0.6351
vn 0.3966 0.5333 0.7472
vn 0.3985 -0.7106 0.5798
vn -0.3919 0.4600 -0.7968
vn -0.3356 0.6734 -0.6587
vn -0.1797 0.9304 -0.3196
vn -0.5167 0.4096 -0.7519
vn 0.5502 0.4280 0.7170
vn -0.1461 0.9749 -0.1679
vn 0.5353 -0.6497 0.5398
vn -0.3967 0.7585 -0.5169
vn -0.6450 0.4097 -0.6450
vn -0.0567 0.9974 -0.0452
vn 0.5857 0.5726 0.5737
vn -0.3630 0.8582 -0.3630
vn -0.1759 0.9751 -0.1350
vn 0.5265 -0.7668 0.3671
vn 0.7255 0.4281 0.5388
vn 0.6770 -0.5672 0.4690
vn -0.7519 0.4096 -0.5167
vn -0.1949 0.9751 -0.1058
vn 0.8009 0.4281 0.4187
vn 0.6662 -0.6706 0.3264
vn 0.6351 -0.7106 0.3029
vn -0.5805 0.7586 -0.2958
vn -0.7968 0.4600 -0.3919
vn -0.2091 0.9751 -0.0740
vn 0.8565 0.4281 0.2882
vn 0.7484 -0.6240 0.2248
vn -0.8852 0.3729 -0.2782
vn -0.6196 0.7586 -0.2013
vn -0.1116 0.9933 -0.0286
vn 0.9473 0.2714 0.1699
vn 0.6964 -0.7107 0.0993
vn -0.7302 0.6734 -0.1157
vn -0.8789 0.4600 -0.1265
vn 0.9037 0.4281 -0.0000
vn -0.4553 0.8903 -0.0000
vn 0.5544 -0.8323 -0.0000
vn 0.6515 0.7586 -0.0000
vn 0.6587 0.6734 -0.3356
vn 0.3967 0.7585 -0.5169
vn 0.4607 0.7586 -0.4607
vn 0.3356 0.6734 -0.6587
vn -0.5169 0.7585 -0.3967
vn -0.2582 0.5493 -0.7947
vn -0.0000 0.9088 -0.4171
vn 0.1451 0.3744 -0.9159
vn -0.5134 0.8582 -0.0000
vn -0.5169 0.7585 0.3967
vn -0.2903 -0.0339 0.9563
vn -0.1494 0.1119 0.9824
vn -0.9641 -0.0721 0.2557
vn -0.7973 -0.5081 0.3257
vn -0.8198 -0.2847 0.4969
vn -0.8626 -0.5059 -0.0000
vn -0.8431 -0.4586 -0.2808
vn -0.9074 -0.3670 -0.2046
vn -0.9258 0.1704 0.3373
vn -0.9785 0.1535 0.1378
vn -0.9555 -0.0642 -0.2879
vn -0.9735 0.2286 0.0000
vn -0.2896 -0.0333 -0.9566
vn -0.1646 0.9864 0.0000
vn -0.9785 0.1535 -0.1378
vn -0.3551 0.4111 -0.8396
vn -0.9258 0.1704 -0.3373
vn -0.3967 0.9088 0.1289
vn -0.7302 0.6734 0.1157
vn -0.7446 0.5493 0.3794
vn -0.1586 0.8582 0.4883
vn -0.3967 0.7585 0.5169
vn 0.5169 0.7585 0.3967
vn 0.6435 0.7586 0.1019
vn -0.0000 0.7586 0.6515
vn -0.1157 0.6734 0.7302
vn 0.6587 0.6734 0.3356
vn 0.1451 0.3744 0.9159
vn 0.3374 0.8324 0.4396
vn 0.4210 0.3744 0.8262
vn -0.0803 -0.8581 -0.5071
vn -0.3264 -0.6706 -0.6662
vn -0.3110 -0.7585 -0.5727
vn -0.4690 -0.5672 -0.6770
vn -0.4694 -0.6368 -0.6117
vn -0.4575 -0.8581 -0.2331
vn -0.6463 -0.7375 -0.1960
vn -0.9796 -0.1483 -0.1355
vn -0.7394 -0.6733 -0.0000
vn -0.9889 -0.1484 0.0000
vn -0.8199 -0.2841 -0.4970
vn -0.6143 0.3076 -0.7267
vn -0.9796 -0.1483 0.1355
vn -0.9074 -0.3670 0.2046
vn -0.5071 -0.8581 0.0803
vn -0.7948 -0.5492 0.2582
vn -0.7961 -0.5975 0.0959
vn -0.6153 0.3063 0.7263
vn -0.6662 -0.6706 0.3264
vn -0.4871 -0.8324 0.2645
vn -0.6770 -0.5672 0.4690
vn -0.5170 -0.7585 0.3968
vn -0.5382 -0.6705 0.5107
vn -0.4486 -0.7585 0.4727
vn -0.4517 -0.6705 0.5886
vn -0.3691 -0.7585 0.5371
vn -0.3669 -0.5977 0.7128
vn -0.2285 -0.6733 0.7032
vn -0.1221 -0.5977 0.7923
vn -0.0000 -0.5492 0.8357
vn -0.0000 -0.6707 0.7418
vn 0.0803 -0.8581 0.5071
vn 0.3669 -0.5977 0.7128
vn 0.4517 -0.6705 0.5886
vn 0.5382 -0.6705 0.5107
vn 0.4871 -0.8324 0.2645
vn 0.6463 -0.7375 0.1960
vn 0.9796 -0.1483 0.1355
vn 0.5071 -0.8581 0.0803
vn 0.7961 -0.5975 0.0959
vn 0.9889 -0.1484 -0.0000
vn 0.9074 -0.3670 0.2047
vn 0.8626 -0.5059 0.0000
vn 0.6153 0.3063 0.7263
vn 0.8690 -0.4948 0.0000
vn 0.9074 -0.3670 -0.2047
vn 0.9796 -0.1483 -0.1355
vn 0.5071 -0.8581 -0.0803
vn 0.8199 -0.2841 -0.4971
vn 0.6143 0.3076 -0.7267
vn 0.7961 -0.5975 -0.0959
vn 0.6463 -0.7375 -0.1960
vn 0.6355 -0.6368 -0.4367
vn 0.5886 -0.6705 -0.4517
vn 0.5107 -0.6705 -0.5382
vn 0.4690 -0.5672 -0.6770
vn 0.2285 -0.6733 -0.7032
vn 0.1221 -0.5977 -0.7923
vn 0.1307 -0.5492 -0.8254
vn 0.0000 -0.5492 -0.8357
vn -0.7961 -0.5975 -0.0959
vn -0.8690 -0.4948 0.0000
vn -0.6964 -0.7107 -0.0993
vn -0.9037 0.4281 -0.0000
vn -0.7484 -0.6240 -0.2248
vn -0.9473 0.2714 -0.1699
vn -0.6351 -0.7106 -0.3029
vn -0.7128 -0.5977 -0.3669
vn -0.8565 0.4281 -0.2882
vn 0.1116 0.9933 0.0286
vn -0.5798 -0.7106 -0.3985
vn -0.7472 0.5333 -0.3966
vn 0.2091 0.9751 0.0740
vn -0.5886 -0.6705 -0.4517
vn 0.8852 0.3729 0.2782
vn 0.8789 0.4600 0.1265
vn -0.5398 -0.6497 -0.5353
vn -0.7170 0.4280 -0.5502
vn -0.5107 -0.6705 -0.5382
vn 0.1679 0.9749 0.1461
vn 0.3196 0.9304 0.1797
vn 0.7968 0.4600 0.3919
vn 0.4883 0.8582 0.1586
vn 0.7519 0.4096 0.5167
vn -0.6390 0.4281 -0.6390
vn -0.0180 0.9997 -0.0180
vn 0.6450 0.4097 0.6450
vn -0.3671 -0.7668 -0.5265
vn -0.5502 0.4280 -0.7170
vn 0.1461 0.9749 0.1679
vn -0.3966 0.5333 -0.7472
vn -0.3029 -0.7106 -0.6351
vn 0.3630 0.8582 0.3630
vn 0.5167 0.4096 0.7519
vn 0.1797 0.9304 0.3196
vn -0.1792 -0.8148 -0.5514
vn -0.2882 0.4281 -0.8565
vn 0.0740 0.9751 0.2091
vn -0.2248 -0.6240 -0.7484
vn 0.3919 0.4600 0.7968
vn 0.2782 0.3729 0.8852
vn 0.0286 0.9933 0.1116
vn -0.1699 0.2714 -0.9473
vn -0.0993 -0.7107 -0.6964
vn -0.1221 -0.5977 -0.7923
vn 0.1289 0.9088 0.3967
vn 0.0000 0.4281 -0.9037
vn 0.0000 -0.8323 -0.5544
vn 0.1265 0.4600 0.8789
vn -0.0000 0.8903 0.4553
vn 0.0000 -0.6707 -0.7418
vn 0.0000 0.3232 0.9463
vn 0.0993 -0.7107 -0.6964
vn 0.1699 0.2714 -0.9473
vn -0.0286 0.9933 0.1116
vn -0.1265 0.4600 0.8789
vn 0.1792 -0.8148 -0.5514
vn 0.2248 -0.6240 -0.7484
vn 0.9641 -0.0721 0.2557
vn 0.1494 0.1119 0.9824
vn 0.7973 -0.5081 0.3257
vn 0.8431 -0.4586 -0.2808
vn 0.9258 0.1704 0.3373
vn 0.4947 0.7359 0.4624
vn 0.9555 -0.0642 -0.2879
vn 0.9735 0.2286 -0.0000
vn 0.9785 0.1535 0.1378
vn 0.2896 -0.0333 -0.9566
vn 0.1646 0.9864 -0.0000
vn 0.9785 0.1535 -0.1378
vn 0.4947 0.7359 -0.4624
vn 0.9258 0.1704 -0.3373
vn 0.2412 0.1497 -0.9589
vn -0.8267 0.2349 -0.5113
vn 0.3234 0.4835 -0.8134
vn -0.6679 -0.4695 -0.5774
vn -0.7052 -0.3605 0.6105
vn -0.4841 -0.6867 0.5423
vn -0.3903 -0.6114 -0.6884
vn -0.0684 -0.8844 -0.4617
vn 0.1264 0.3129 0.9413
vn 0.2411 0.2245 0.9442
vn 0.3235 0.5457 0.7730
vn -0.0029 0.1110 0.9938
vn 0.1370 -0.8374 0.5291
vn 0.6033 -0.6168 -0.5056
vn -0.1529 0.2190 -0.9637
vn 0.4818 -0.4635 0.7437
vn -0.0398 0.9984 -0.0393
vn 0.6447 0.7639 -0.0300
vn 0.8909 0.4539 -0.0178
vn -0.1528 0.2941 0.9435
vn 0.1358 0.9900 -0.0389
vn 0.8247 -0.2352 0.5143
vn 0.6792 -0.2405 -0.6934
vn 0.1265 0.2380 -0.9630
vn 0.7893 -0.1922 -0.5831
vn -0.2867 0.1461 0.9468
vn -0.8094 0.5868 -0.0232
vn 0.7881 -0.1515 0.5966
vn -0.3007 0.0253 -0.9534
vn 0.8314 -0.2546 -0.4940
vn -0.0029 0.0328 -0.9995
vn -0.3008 0.1000 0.9484
vn -0.9655 0.2603 -0.0103
vn 0.6865 -0.1649 0.7082
vn -0.2981 0.0363 -0.9539
vn -0.2867 0.0714 -0.9554
vn 0.7518 -0.2690 0.6020
vn 0.7417 -0.3403 -0.5781
vn -0.2981 0.1110 0.9480
vn -0.9758 0.2184 -0.0086
vn 0.6473 -0.3338 0.6852
vn -0.2890 0.1410 0.9469
vn 0.6358 -0.4065 -0.6561
vn -0.9568 0.2904 -0.0114
vn -0.4490 0.2926 0.8443
vn -0.9153 0.4024 -0.0157
vn -0.2889 0.0663 -0.9551
vn -0.0620 0.0867 0.9943
vn 0.7108 -0.5065 0.4882
vn 0.6913 -0.5685 -0.4459
vn -0.0620 0.0084 -0.9980
vn -0.4491 0.2255 -0.8646
vn -0.8660 0.4996 -0.0195
vn -0.7934 0.6083 -0.0238
vn 0.5320 -0.4889 0.6913
vn -0.3666 0.3999 0.8400
vn 0.5157 -0.5580 -0.6502
vn -0.3667 0.3328 -0.8688
vn -0.7071 0.7066 -0.0277
vn -0.0476 0.1011 0.9937
vn 0.5506 -0.6724 0.4946
vn -0.6088 0.7927 -0.0311
vn 0.5252 -0.7286 -0.4397
vn -0.0476 0.0229 -0.9986
vn 0.3804 -0.6090 0.6960
vn -0.2593 0.4823 0.8367
vn 0.3604 -0.6732 -0.6457
vn -0.5000 0.8653 -0.0341
vn -0.2593 0.4152 -0.8720
vn -0.3827 0.9232 -0.0363
vn -0.0299 0.1113 0.9933
vn 0.3529 -0.7913 0.4993
vn 0.3234 -0.8402 -0.4353
vn -0.0299 0.0331 -0.9990
vn 0.2029 -0.6857 0.6991
vn -0.1342 0.5341 0.8347
vn 0.1805 -0.7443 -0.6429
vn -0.2588 0.9652 -0.0380
vn -0.1342 0.4669 -0.8740
vn -0.1305 0.9907 -0.0389
vn -0.0102 0.1166 0.9931
vn 0.1206 -0.9001 0.4186
vn -0.0102 0.0383 -0.9992
vn 0.1053 -0.8223 -0.5592
vn -0.0000 -0.8293 -0.5589
vn 0.0000 -0.6132 0.7899
vn 0.0000 0.5517 0.8340
vn -0.0000 0.9992 -0.0392
vn -0.0000 0.4846 -0.8747
vn 0.1305 0.9907 -0.0389
vn 0.0102 0.1166 0.9931
vn -0.1206 -0.9001 0.4186
vn -0.1053 -0.8223 -0.5592
vn 0.0102 0.0383 -0.9992
vn -0.1805 -0.7443 -0.6429
vn -0.2029 -0.6857 0.6991
vn 0.1342 0.5341 0.8347
vn 0.2588 0.9652 -0.0380
vn 0.1342 0.4669 -0.8740
vn 0.3827 0.9232 -0.0363
vn 0.0299 0.1113 0.9933
vn -0.3234 -0.8402 -0.4353
vn 0.0299 0.0331 -0.9990
vn -0.3529 -0.7913 0.4993
vn -0.3604 -0.6732 -0.6457
vn -0.3804 -0.6090 0.6960
vn 0.2593 0.4823 0.8367
vn 0.5000 0.8653 -0.0341
vn 0.2593 0.4152 -0.8720
vn 0.6088 0.7927 -0.0311
vn 0.0476 0.1011 0.9937
vn -0.5252 -0.7286 -0.4397
vn 0.0476 0.0229 -0.9986
vn -0.5506 -0.6724 0.4946
vn -0.5157 -0.5580 -0.6502
vn -0.5320 -0.4889 0.6913
vn 0.3666 0.3999 0.8400
vn 0.7071 0.7066 -0.0277
vn 0.3667 0.3328 -0.8688
vn 0.7934 0.6083 -0.0238
vn 0.0620 0.0867 0.9943
vn -0.6913 -0.5685 -0.4459
vn -0.7108 -0.5065 0.4882
vn 0.0620 0.0084 -0.9980
vn -0.6358 -0.4065 -0.6561
vn -0.6473 -0.3338 0.6852
vn 0.4490 0.2926 0.8443
vn 0.8660 0.4996 -0.0195
vn 0.4491 0.2255 -0.8646
vn 0.9153 0.4024 -0.0157
vn 0.2890 0.1410 0.9469
vn -0.7417 -0.3403 -0.5781
vn -0.7518 -0.2690 0.6020
vn 0.2889 0.0663 -0.9551
vn 0.9568 0.2904 -0.0114
vn 0.2981 0.1110 0.9480
vn 0.2981 0.0363 -0.9539
vn -0.8314 -0.2546 -0.4940
vn -0.6865 -0.1649 0.7082
vn 0.9758 0.2184 -0.0086
vn 0.3008 0.1000 0.9484
vn 0.3007 0.0253 -0.9534
vn -0.7881 -0.1515 0.5966
vn -0.7893 -0.1922 -0.5831
vn 0.9655 0.2603 -0.0103
vn 0.2867 0.1461 0.9468
vn -0.8247 -0.2352 0.5143
vn 0.2867 0.0714 -0.9554
vn -0.6792 -0.2405 -0.6934
vn 0.8094 0.5868 -0.0232
vn 0.1528 0.2941 0.9435
vn -0.6033 -0.6168 -0.5056
vn -0.4818 -0.4635 0.7437
vn 0.1529 0.2190 -0.9637
vn 0.0398 0.9984 -0.0393
vn 0.0029 0.1110 0.9938
vn 0.0029 0.0328 -0.9995
vn -0.1370 -0.8374 0.5291
vn 0.0684 -0.8844 -0.4617
vn 0.4841 -0.6867 0.5423
vn -0.1264 0.3129 0.9413
vn 0.3903 -0.6114 -0.6884
vn -0.6447 0.7638 -0.0300
vn -0.1265 0.2380 -0.9630
vn 0.6679 -0.4695 -0.5774
vn 0.7052 -0.3605 0.6105
vn -0.2411 0.2245 0.9442
vn -0.2412 0.1497 -0.9589
vn -0.8909 0.4539 -0.0178
vn -0.6891 0.4348 0.5797
vn 0.6891 0.4348 0.5796
vn -0.1358 0.9900 -0.0389
vn -0.3235 0.5457 0.7730
vn 0.8267 0.2349 -0.5113
vn -0.3234 0.4835 -0.8134
f 1/1/1 10/10/10 2/2/2
f 1/1/1 2/2/2 3/3/3
f 6/6/6 280/280/280 4/4/4
f 6/6/6 4/4/4 5/5/5
f 2/2/2 13/13/13 6/6/6
f 2/2/2 6/6/6 5/5/5
f 7/7/7 9/9/9 8/8/8
f 7/7/7 8/8/8 215/215/215
f 9/9/9 10/10/10 1/1/1
f 9/9/9 1/1/1 8/8/8
f 11/11/11 12/12/12 10/10/10
f 11/11/11 10/10/10 9/9/9
f 7/7/7 216/216/216 11/11/11
f 7/7/7 11/11/11 9/9/9
f 12/12/12 13/13/13 2/2/2
f 12/12/12 2/2/2 10/10/10
f 6/6/6 14/14/14 279/279/279
f 6/6/6 279/279/279 280/280/280
f 13/13/13 18/18/18 14/14/14
f 13/13/13 14/14/14 6/6/6
f 15/15/15 16/16/16 12/12/12
f 15/15/15 12/12/12 11/11/11
f 216/216/216 17/17/17 15/15/15
f 216/216/216 15/15/15 11/11/11
f 16/16/16 18/18/18 13/13/13
f 16/16/16 13/13/13 12/12/12
f 14/14/14 20/20/20 278/278/278
f 14/14/14 278/278/278 279/279/279
f 19/19/19 20/20/20 14/14/14
f 19/19/19 14/14/14 18/18/18
f 16/16/16 21/21/21 19/19/19
f 16/16/16 19/19/19 18/18/18
f 15/15/15 22/22/22 21/21/21
f 15/15/15 21/21/21 16/16/16
f 194/194/194 22/22/22 15/15/15
f 194/194/194 15/15/15 17/17/17
f 23/23/23 25/25/25 20/20/20
f 23/23/23 20/20/20 19/19/19
f 21/21/21 26/26/26 23/23/23
f 21/21/21 23/23/23 19/19/19
f 20/20/20 25/25/25 24/24/24
f 20/20/20 24/24/24 278/278/278
f 22/22/22 27/27/27 26/26/26
f 22/22/22 26/26/26 21/21/21
f 214/214/214 27/27/27 22/22/22
f 214/214/214 22/22/22 194/194/194
f 25/25/25 30/30/30 276/276/276
f 25/25/25 276/276/276 24/24/24
f 28/28/28 29/29/29 23/23/23
f 28/28/28 23/23/23 26/26/26
f 27/27/27 31/31/31 28/28/28
f 27/27/27 28/28/28 26/26/26
f 29/29/29 30/30/30 25/25/25
f 29/29/29 25/25/25 23/23/23
f 214/214/214 212/212/212 31/31/31
f 214/214/214 31/31/31 27/27/27
f 32/32/32 33/33/33 29/29/29
f 32/32/32 29/29/29 28/28/28
f 31/31/31 35/35/35 32/32/32
f 31/31/31 32/32/32 28/28/28
f 33/33/33 34/34/34 30/30/30
f 33/33/33 30/30/30 29/29/29
f 34/34/34 275/275/275 276/276/276
f 34/34/34 276/276/276 30/30/30
f 213/213/213 35/35/35 31/31/31
f 213/213/213 31/31/31 212/212/212
f 181/181/181 183/183/183 34/34/34
f 181/181/181 34/34/34 33/33/33
f 32/32/32 182/182/182 181/181/181
f 32/32/32 181/181/181 33/33/33
f 35/35/35 36/36/36 182/182/182
f 35/35/35 182/182/182 32/32/32
f 183/183/183 269/269/269 275/275/275
f 183/183/183 275/275/275 34/34/34
f 213/213/213 193/193/193 36/36/36
f 213/213/213 36/36/36 35/35/35
f 207/207/207 37/37/37 236/236/236
f 207/207/207 236/236/236 235/235/235
f 38/38/38 236/236/236 37/37/37
f 39/39/39 40/40/40 37/37/37
f 39/39/39 37/37/37 207/207/207
f 41/41/41 38/38/38 37/37/37
f 40/40/40 42/42/42 41/41/41
f 40/40/40 41/41/41 37/37/37
f 41/41/41 242/242/242 38/38/38
f 210/210/210 44/44/44 40/40/40
f 210/210/210 40/40/40 39/39/39
f 195/195/195 199/199/199 242/242/242
f 195/195/195 242/242/242 41/41/41
f 41/41/41 42/42/42 196/196/196
f 41/41/41 196/196/196 195/195/195
f 42/42/42 49/49/49 43/43/43
f 42/42/42 43/43/43 196/196/196
f 40/40/40 45/45/45 42/42/42
f 44/44/44 46/46/46 40/40/40
f 40/40/40 46/46/46 45/45/45
f 47/47/47 46/46/46 44/44/44
f 47/47/47 44/44/44 210/210/210
f 208/208/208 45/45/45 46/46/46
f 208/208/208 46/46/46 47/47/47
f 208/208/208 50/50/50 48/48/48
f 208/208/208 48/48/48 45/45/45
f 45/45/45 48/48/48 42/42/42
f 42/42/42 48/48/48 49/49/49
f 49/49/49 48/48/48 50/50/50
f 49/49/49 50/50/50 43/43/43
f 274/274/274 51/51/51 352/352/352
f 274/274/274 352/352/352 273/273/273
f 51/51/51 274/274/274 52/52/52
f 51/51/51 55/55/55 53/53/53
f 51/51/51 53/53/53 352/352/352
f 51/51/51 52/52/52 54/54/54
f 52/52/52 268/268/268 54/54/54
f 56/56/56 55/55/55 51/51/51
f 56/56/56 51/51/51 54/54/54
f 55/55/55 61/61/61 57/57/57
f 55/55/55 57/57/57 53/53/53
f 54/54/54 58/58/58 344/344/344
f 54/54/54 344/344/344 56/56/56
f 268/268/268 59/59/59 58/58/58
f 268/268/268 58/58/58 54/54/54
f 60/60/60 64/64/64 56/56/56
f 60/60/60 56/56/56 344/344/344
f 61/61/61 62/62/62 355/355/355
f 61/61/61 355/355/355 57/57/57
f 55/55/55 62/62/62 61/61/61
f 56/56/56 63/63/63 55/55/55
f 63/63/63 62/62/62 55/55/55
f 64/64/64 65/65/65 56/56/56
f 56/56/56 65/65/65 63/63/63
f 348/348/348 65/65/65 64/64/64
f 348/348/348 64/64/64 60/60/60
f 353/353/353 355/355/355 62/62/62
f 353/353/353 62/62/62 63/63/63
f 65/65/65 348/348/348 353/353/353
f 65/65/65 353/353/353 63/63/63
f 260/260/260 79/79/79 244/244/244
f 260/260/260 244/244/244 240/240/240
f 69/69/69 229/229/229 73/73/73
f 69/69/69 73/73/73 277/277/277
f 241/241/241 86/86/86 85/85/85
f 241/241/241 85/85/85 286/286/286
f 87/87/87 89/89/89 86/86/86
f 87/87/87 86/86/86 241/241/241
f 86/86/86 88/88/88 288/288/288
f 86/86/86 288/288/288 85/85/85
f 89/89/89 91/91/91 88/88/88
f 89/89/89 88/88/88 86/86/86
f 87/87/87 243/243/243 90/90/90
f 87/87/87 90/90/90 89/89/89
f 90/90/90 94/94/94 91/91/91
f 90/90/90 91/91/91 89/89/89
f 92/92/92 93/93/93 288/288/288
f 92/92/92 288/288/288 88/88/88
f 91/91/91 96/96/96 92/92/92
f 91/91/91 92/92/92 88/88/88
f 95/95/95 102/102/102 94/94/94
f 95/95/95 94/94/94 90/90/90
f 243/243/243 245/245/245 95/95/95
f 243/243/243 95/95/95 90/90/90
f 94/94/94 101/101/101 96/96/96
f 94/94/94 96/96/96 91/91/91
f 97/97/97 99/99/99 93/93/93
f 97/97/97 93/93/93 92/92/92
f 98/98/98 97/97/97 92/92/92
f 98/98/98 92/92/92 96/96/96
f 100/100/100 184/184/184 99/99/99
f 100/100/100 99/99/99 97/97/97
f 98/98/98 105/105/105 100/100/100
f 98/98/98 100/100/100 97/97/97
f 102/102/102 107/107/107 101/101/101
f 102/102/102 101/101/101 94/94/94
f 96/96/96 101/101/101 103/103/103
f 96/96/96 103/103/103 98/98/98
f 247/247/247 104/104/104 95/95/95
f 247/247/247 95/95/95 245/245/245
f 104/104/104 108/108/108 102/102/102
f 104/104/104 102/102/102 95/95/95
f 98/98/98 103/103/103 185/185/185
f 98/98/98 185/185/185 105/105/105
f 101/101/101 107/107/107 106/106/106
f 101/101/101 106/106/106 103/103/103
f 106/106/106 111/111/111 185/185/185
f 106/106/106 185/185/185 103/103/103
f 108/108/108 113/113/113 107/107/107
f 108/108/108 107/107/107 102/102/102
f 249/249/249 109/109/109 104/104/104
f 249/249/249 104/104/104 247/247/247
f 104/104/104 109/109/109 110/110/110
f 104/104/104 110/110/110 108/108/108
f 107/107/107 113/113/113 112/112/112
f 107/107/107 112/112/112 106/106/106
f 112/112/112 187/187/187 111/111/111
f 112/112/112 111/111/111 106/106/106
f 110/110/110 114/114/114 113/113/113
f 110/110/110 113/113/113 108/108/108
f 251/251/251 116/116/116 109/109/109
f 251/251/251 109/109/109 249/249/249
f 114/114/114 118/118/118 112/112/112
f 114/114/114 112/112/112 113/113/113
f 109/109/109 116/116/116 115/115/115
f 109/109/109 115/115/115 110/110/110
f 115/115/115 119/119/119 114/114/114
f 115/115/115 114/114/114 110/110/110
f 117/117/117 122/122/122 116/116/116
f 117/117/117 116/116/116 251/251/251
f 186/186/186 187/187/187 112/112/112
f 186/186/186 112/112/112 118/118/118
f 119/119/119 123/123/123 118/118/118
f 119/119/119 118/118/118 114/114/114
f 116/116/116 122/122/122 120/120/120
f 116/116/116 120/120/120 115/115/115
f 121/121/121 119/119/119 115/115/115
f 121/121/121 115/115/115 120/120/120
f 121/121/121 127/127/127 123/123/123
f 121/121/121 123/123/123 119/119/119
f 118/118/118 123/123/123 188/188/188
f 118/118/118 188/188/188 186/186/186
f 117/117/117 253/253/253 124/124/124
f 117/117/117 124/124/124 122/122/122
f 125/125/125 120/120/120 122/122/122
f 125/125/125 122/122/122 124/124/124
f 120/120/120 125/125/125 126/126/126
f 120/120/120 126/126/126 121/121/121
f 126/126/126 131/131/131 127/127/127
f 126/126/126 127/127/127 121/121/121
f 127/127/127 128/128/128 188/188/188
f 127/127/127 188/188/188 123/123/123
f 124/124/124 130/130/130 129/129/129
f 124/124/124 129/129/129 125/125/125
f 129/129/129 132/132/132 126/126/126
f 129/129/129 126/126/126 125/125/125
f 253/253/253 255/255/255 130/130/130
f 253/253/253 130/130/130 124/124/124
f 127/127/127 131/131/131 192/192/192
f 127/127/127 192/192/192 128/128/128
f 132/132/132 135/135/135 131/131/131
f 132/132/132 131/131/131 126/126/126
f 133/133/133 134/134/134 130/130/130
f 133/133/133 130/130/130 255/255/255
f 134/134/134 136/136/136 129/129/129
f 134/134/134 129/129/129 130/130/130
f 135/135/135 191/191/191 192/192/192
f 135/135/135 192/192/192 131/131/131
f 137/137/137 132/132/132 129/129/129
f 137/137/137 129/129/129 136/136/136
f 132/132/132 137/137/137 138/138/138
f 132/132/132 138/138/138 135/135/135
f 139/139/139 140/140/140 134/134/134
f 139/139/139 134/134/134 133/133/133
f 140/140/140 142/142/142 136/136/136
f 140/140/140 136/136/136 134/134/134
f 135/135/135 138/138/138 141/141/141
f 135/135/135 141/141/141 191/191/191
f 142/142/142 144/144/144 137/137/137
f 142/142/142 137/137/137 136/136/136
f 137/137/137 144/144/144 143/143/143
f 137/137/137 143/143/143 138/138/138
f 143/143/143 190/190/190 141/141/141
f 143/143/143 141/141/141 138/138/138
f 139/139/139 257/257/257 145/145/145
f 139/139/139 145/145/145 140/140/140
f 145/145/145 146/146/146 142/142/142
f 145/145/145 142/142/142 140/140/140
f 146/146/146 150/150/150 144/144/144
f 146/146/146 144/144/144 142/142/142
f 257/257/257 258/258/258 147/147/147
f 257/257/257 147/147/147 145/145/145
f 147/147/147 152/152/152 146/146/146
f 147/147/147 146/146/146 145/145/145
f 144/144/144 150/150/150 148/148/148
f 144/144/144 148/148/148 143/143/143
f 149/149/149 190/190/190 143/143/143
f 149/149/149 143/143/143 148/148/148
f 150/150/150 153/153/153 151/151/151
f 150/150/150 151/151/151 148/148/148
f 151/151/151 155/155/155 149/149/149
f 151/151/151 149/149/149 148/148/148
f 153/153/153 150/150/150 146/146/146
f 153/153/153 146/146/146 152/152/152
f 258/258/258 259/259/259 154/154/154
f 258/258/258 154/154/154 147/147/147
f 154/154/154 158/158/158 152/152/152
f 154/154/154 152/152/152 147/147/147
f 153/153/153 157/157/157 156/156/156
f 153/153/153 156/156/156 151/151/151
f 156/156/156 159/159/159 155/155/155
f 156/156/156 155/155/155 151/151/151
f 152/152/152 158/158/158 157/157/157
f 152/152/152 157/157/157 153/153/153
f 158/158/158 162/162/162 160/160/160
f 158/158/158 160/160/160 157/157/157
f 160/160/160 164/164/164 156/156/156
f 160/160/160 156/156/156 157/157/157
f 259/259/259 163/163/163 161/161/161
f 259/259/259 161/161/161 154/154/154
f 154/154/154 161/161/161 162/162/162
f 154/154/154 162/162/162 158/158/158
f 189/189/189 159/159/159 156/156/156
f 189/189/189 156/156/156 164/164/164
f 162/162/162 166/166/166 165/165/165
f 162/162/162 165/165/165 160/160/160
f 165/165/165 170/170/170 164/164/164
f 165/165/165 164/164/164 160/160/160
f 161/161/161 168/168/168 166/166/166
f 161/161/161 166/166/166 162/162/162
f 167/167/167 168/168/168 161/161/161
f 167/167/167 161/161/161 163/163/163
f 164/164/164 170/170/170 169/169/169
f 164/164/164 169/169/169 189/189/189
f 166/166/166 172/172/172 171/171/171
f 166/166/166 171/171/171 165/165/165
f 171/171/171 174/174/174 170/170/170
f 171/171/171 170/170/170 165/165/165
f 168/168/168 173/173/173 172/172/172
f 168/168/168 172/172/172 166/166/166
f 261/261/261 173/173/173 168/168/168
f 261/261/261 168/168/168 167/167/167
f 174/174/174 175/175/175 169/169/169
f 174/174/174 169/169/169 170/170/170
f 172/172/172 177/177/177 176/176/176
f 172/172/172 176/176/176 171/171/171
f 176/176/176 180/180/180 174/174/174
f 176/176/176 174/174/174 171/171/171
f 173/173/173 178/178/178 177/177/177
f 173/173/173 177/177/177 172/172/172
f 261/261/261 264/264/264 178/178/178
f 261/261/261 178/178/178 173/173/173
f 174/174/174 180/180/180 179/179/179
f 174/174/174 179/179/179 175/175/175
f 178/178/178 183/183/183 181/181/181
f 178/178/178 181/181/181 177/177/177
f 181/181/181 182/182/182 176/176/176
f 181/181/181 176/176/176 177/177/177
f 182/182/182 36/36/36 180/180/180
f 182/182/182 180/180/180 176/176/176
f 264/264/264 269/269/269 183/183/183
f 264/264/264 183/183/183 178/178/178
f 36/36/36 193/193/193 179/179/179
f 36/36/36 179/179/179 180/180/180
f 212/212/212 214/214/214 218/218/218
f 212/212/212 218/218/218 184/184/184
f 111/111/111 187/187/187 169/169/169
f 111/111/111 169/169/169 175/175/175
f 197/197/197 198/198/198 195/195/195
f 197/197/197 195/195/195 196/196/196
f 43/43/43 203/203/203 197/197/197
f 43/43/43 197/197/197 196/196/196
f 198/198/198 238/238/238 199/199/199
f 198/198/198 199/199/199 195/195/195
f 198/198/198 200/200/200 238/238/238
f 197/197/197 205/205/205 201/201/201
f 197/197/197 201/201/201 198/198/198
f 201/201/201 200/200/200 198/198/198
f 202/202/202 200/200/200 201/201/201
f 50/50/50 204/204/204 203/203/203
f 50/50/50 203/203/203 43/43/43
f 203/203/203 204/204/204 197/197/197
f 197/197/197 204/204/204 206/206/206
f 205/205/205 197/197/197 206/206/206
f 50/50/50 208/208/208 206/206/206
f 50/50/50 206/206/206 204/204/204
f 201/201/201 207/207/207 235/235/235
f 201/201/201 235/235/235 202/202/202
f 205/205/205 39/39/39 207/207/207
f 205/205/205 207/207/207 201/201/201
f 206/206/206 209/209/209 205/205/205
f 206/206/206 208/208/208 47/47/47
f 206/206/206 47/47/47 209/209/209
f 205/205/205 211/211/211 210/210/210
f 205/205/205 210/210/210 39/39/39
f 205/205/205 209/209/209 211/211/211
f 47/47/47 210/210/210 211/211/211
f 47/47/47 211/211/211 209/209/209
f 284/284/284 225/225/225 329/329/329
f 284/284/284 329/329/329 335/335/335
f 71/71/71 320/320/320 329/329/329
f 71/71/71 329/329/329 225/225/225
f 71/71/71 227/227/227 226/226/226
f 71/71/71 226/226/226 320/320/320
f 227/227/227 229/229/229 228/228/228
f 227/227/227 228/228/228 226/226/226
f 229/229/229 69/69/69 303/303/303
f 229/229/229 303/303/303 228/228/228
f 69/69/69 68/68/68 298/298/298
f 69/69/69 298/298/298 303/303/303
f 68/68/68 230/230/230 292/292/292
f 68/68/68 292/292/292 298/298/298
f 66/66/66 231/231/231 292/292/292
f 66/66/66 292/292/292 230/230/230
f 66/66/66 67/67/67 232/232/232
f 66/66/66 232/232/232 231/231/231
f 231/231/231 232/232/232 285/285/285
f 233/233/233 234/234/234 232/232/232
f 233/233/233 232/232/232 67/67/67
f 234/234/234 200/200/200 202/202/202
f 234/234/234 202/202/202 232/232/232
f 232/232/232 202/202/202 235/235/235
f 235/235/235 236/236/236 285/285/285
f 235/235/235 285/285/285 232/232/232
f 236/236/236 38/38/38 286/286/286
f 236/236/236 286/286/286 285/285/285
f 233/233/233 239/239/239 237/237/237
f 233/233/233 237/237/237 234/234/234
f 238/238/238 200/200/200 234/234/234
f 238/238/238 234/234/234 237/237/237
f 238/238/238 237/237/237 199/199/199
f 237/237/237 239/239/239 240/240/240
f 237/237/237 240/240/240 87/87/87
f 199/199/199 237/237/237 241/241/241
f 199/199/199 241/241/241 242/242/242
f 237/237/237 87/87/87 241/241/241
f 242/242/242 241/241/241 286/286/286
f 242/242/242 286/286/286 38/38/38
f 240/240/240 244/244/244 243/243/243
f 240/240/240 243/243/243 87/87/87
f 244/244/244 246/246/246 245/245/245
f 244/244/244 245/245/245 243/243/243
f 246/246/246 248/248/248 247/247/247
f 246/246/246 247/247/247 245/245/245
f 248/248/248 250/250/250 249/249/249
f 248/248/248 249/249/249 247/247/247
f 250/250/250 84/84/84 251/251/251
f 250/250/250 251/251/251 249/249/249
f 252/252/252 117/117/117 251/251/251
f 252/252/252 251/251/251 84/84/84
f 252/252/252 83/83/83 253/253/253
f 252/252/252 253/253/253 117/117/117
f 254/254/254 255/255/255 253/253/253
f 254/254/254 253/253/253 83/83/83
f 254/254/254 256/256/256 133/133/133
f 254/254/254 133/133/133 255/255/255
f 81/81/81 139/139/139 133/133/133
f 81/81/81 133/133/133 256/256/256
f 81/81/81 82/82/82 257/257/257
f 81/81/81 257/257/257 139/139/139
f 78/78/78 258/258/258 257/257/257
f 78/78/78 257/257/257 82/82/82
f 80/80/80 259/259/259 258/258/258
f 80/80/80 258/258/258 78/78/78
f 79/79/79 163/163/163 259/259/259
f 79/79/79 259/259/259 80/80/80
f 260/260/260 167/167/167 163/163/163
f 260/260/260 163/163/163 79/79/79
f 75/75/75 261/261/261 167/167/167
f 75/75/75 167/167/167 260/260/260
f 75/75/75 263/263/263 262/262/262
f 75/75/75 262/262/262 261/261/261
f 264/264/264 261/261/261 262/262/262
f 77/77/77 265/265/265 262/262/262
f 77/77/77 262/262/262 263/263/263
f 265/265/265 267/267/267 266/266/266
f 265/265/265 266/266/266 262/262/262
f 59/59/59 262/262/262 266/266/266
f 264/264/264 262/262/262 59/59/59
f 264/264/264 59/59/59 268/268/268
f 269/269/269 264/264/264 268/268/268
f 269/269/269 268/268/268 52/52/52
f 265/265/265 271/271/271 270/270/270
f 265/265/265 270/270/270 267/267/267
f 77/77/77 272/272/272 271/271/271
f 77/77/77 271/271/271 265/265/265
f 273/273/273 270/270/270 271/271/271
f 74/74/74 276/276/276 271/271/271
f 74/74/74 271/271/271 272/272/272
f 274/274/274 275/275/275 269/269/269
f 274/274/274 269/269/269 52/52/52
f 275/275/275 274/274/274 273/273/273
f 275/275/275 273/273/273 271/271/271
f 275/275/275 271/271/271 276/276/276
f 74/74/74 76/76/76 24/24/24
f 74/74/74 24/24/24 276/276/276
f 277/277/277 278/278/278 24/24/24
f 277/277/277 24/24/24 76/76/76
f 73/73/73 279/279/279 278/278/278
f 73/73/73 278/278/278 277/277/277
f 70/70/70 280/280/280 279/279/279
f 70/70/70 279/279/279 73/73/73
f 72/72/72 4/4/4 280/280/280
f 72/72/72 280/280/280 70/70/70
f 281/281/281 341/341/341 4/4/4
f 281/281/281 4/4/4 72/72/72
f 281/281/281 283/283/283 282/282/282
f 281/281/281 282/282/282 341/341/341
f 284/284/284 335/335/335 282/282/282
f 284/284/284 282/282/282 283/283/283
f 85/85/85 287/287/287 285/285/285
f 85/85/85 285/285/285 286/286/286
f 287/287/287 289/289/289 231/231/231
f 287/287/287 231/231/231 285/285/285
f 288/288/288 290/290/290 287/287/287
f 288/288/288 287/287/287 85/85/85
f 290/290/290 293/293/293 289/289/289
f 290/290/290 289/289/289 287/287/287
f 291/291/291 292/292/292 231/231/231
f 291/291/291 231/231/231 289/289/289
f 293/293/293 296/296/296 291/291/291
f 293/293/293 291/291/291 289/289/289
f 294/294/294 297/297/297 293/293/293
f 294/294/294 293/293/293 290/290/290
f 288/288/288 93/93/93 294/294/294
f 288/288/288 294/294/294 290/290/290
f 295/295/295 298/298/298 292/292/292
f 295/295/295 292/292/292 291/291/291
f 296/296/296 302/302/302 295/295/295
f 296/296/296 295/295/295 291/291/291
f 297/297/297 305/305/305 296/296/296
f 297/297/297 296/296/296 293/293/293
f 294/294/294 300/300/300 299/299/299
f 294/294/294 299/299/299 297/297/297
f 93/93/93 99/99/99 300/300/300
f 93/93/93 300/300/300 294/294/294
f 301/301/301 303/303/303 298/298/298
f 301/301/301 298/298/298 295/295/295
f 302/302/302 309/309/309 301/301/301
f 302/302/302 301/301/301 295/295/295
f 218/218/218 307/307/307 299/299/299
f 218/218/218 299/299/299 300/300/300
f 99/99/99 184/184/184 218/218/218
f 99/99/99 218/218/218 300/300/300
f 296/296/296 305/305/305 304/304/304
f 296/296/296 304/304/304 302/302/302
f 297/297/297 299/299/299 306/306/306
f 297/297/297 306/306/306 305/305/305
f 299/299/299 307/307/307 221/221/221
f 299/299/299 221/221/221 306/306/306
f 305/305/305 306/306/306 308/308/308
f 305/305/305 308/308/308 304/304/304
f 221/221/221 217/217/217 308/308/308
f 221/221/221 308/308/308 306/306/306
f 310/310/310 309/309/309 302/302/302
f 310/310/310 302/302/302 304/304/304
f 304/304/304 308/308/308 311/311/311
f 304/304/304 311/311/311 310/310/310
f 312/312/312 228/228/228 303/303/303
f 312/312/312 303/303/303 301/301/301
f 217/217/217 317/317/317 311/311/311
f 217/217/217 311/311/311 308/308/308
f 310/310/310 314/314/314 313/313/313
f 310/310/310 313/313/313 309/309/309
f 311/311/311 318/318/318 314/314/314
f 311/311/311 314/314/314 310/310/310
f 313/313/313 312/312/312 301/301/301
f 313/313/313 301/301/301 309/309/309
f 312/312/312 316/316/316 226/226/226
f 312/312/312 226/226/226 228/228/228
f 315/315/315 316/316/316 312/312/312
f 315/315/315 312/312/312 313/313/313
f 314/314/314 319/319/319 315/315/315
f 314/314/314 315/315/315 313/313/313
f 223/223/223 318/318/318 311/311/311
f 223/223/223 311/311/311 317/317/317
f 318/318/318 324/324/324 319/319/319
f 318/318/318 319/319/319 314/314/314
f 316/316/316 323/323/323 320/320/320
f 316/316/316 320/320/320 226/226/226
f 321/321/321 323/323/323 316/316/316
f 321/321/321 316/316/316 315/315/315
f 322/322/322 321/321/321 315/315/315
f 322/322/322 315/315/315 319/319/319
f 324/324/324 325/325/325 322/322/322
f 324/324/324 322/322/322 319/319/319
f 318/318/318 223/223/223 224/224/224
f 318/318/318 224/224/224 324/324/324
f 224/224/224 330/330/330 325/325/325
f 224/224/224 325/325/325 324/324/324
f 326/326/326 327/327/327 321/321/321
f 326/326/326 321/321/321 322/322/322
f 325/325/325 333/333/333 326/326/326
f 325/325/325 326/326/326 322/322/322
f 327/327/327 328/328/328 323/323/323
f 327/327/327 323/323/323 321/321/321
f 328/328/328 329/329/329 320/320/320
f 328/328/328 320/320/320 323/323/323
f 331/331/331 332/332/332 328/328/328
f 331/331/331 328/328/328 327/327/327
f 326/326/326 334/334/334 331/331/331
f 326/326/326 331/331/331 327/327/327
f 332/332/332 335/335/335 329/329/329
f 332/332/332 329/329/329 328/328/328
f 222/222/222 333/333/333 325/325/325
f 222/222/222 325/325/325 330/330/330
f 333/333/333 336/336/336 334/334/334
f 333/333/333 334/334/334 326/326/326
f 222/222/222 219/219/219 336/336/336
f 222/222/222 336/336/336 333/333/333
f 332/332/332 337/337/337 282/282/282
f 332/332/332 282/282/282 335/335/335
f 331/331/331 338/338/338 337/337/337
f 331/331/331 337/337/337 332/332/332
f 339/339/339 338/338/338 331/331/331
f 339/339/339 331/331/331 334/334/334
f 334/334/334 336/336/336 340/340/340
f 334/334/334 340/340/340 339/339/339
f 336/336/336 219/219/219 220/220/220
f 336/336/336 220/220/220 340/340/340
f 337/337/337 342/342/342 341/341/341
f 337/337/337 341/341/341 282/282/282
f 338/338/338 3/3/3 342/342/342
f 338/338/338 342/342/342 337/337/337
f 339/339/339 1/1/1 3/3/3
f 339/339/339 3/3/3 338/338/338
f 8/8/8 1/1/1 339/339/339
f 8/8/8 339/339/339 340/340/340
f 220/220/220 215/215/215 8/8/8
f 220/220/220 8/8/8 340/340/340
f 5/5/5 4/4/4 341/341/341
f 5/5/5 341/341/341 342/342/342
f 3/3/3 2/2/2 5/5/5
f 3/3/3 5/5/5 342/342/342
f 58/58/58 345/345/345 343/343/343
f 58/58/58 343/343/343 344/344/344
f 343/343/343 347/347/347 60/60/60
f 343/343/343 60/60/60 344/344/344
f 59/59/59 266/266/266 345/345/345
f 59/59/59 345/345/345 58/58/58
f 266/266/266 267/267/267 345/345/345
f 346/346/346 349/349/349 343/343/343
f 346/346/346 343/343/343 345/345/345
f 345/345/345 267/267/267 346/346/346
f 346/346/346 267/267/267 270/270/270
f 347/347/347 351/351/351 348/348/348
f 347/347/347 348/348/348 60/60/60
f 350/350/350 343/343/343 349/349/349
f 350/350/350 351/351/351 343/343/343
f 343/343/343 351/351/351 347/347/347
f 350/350/350 353/353/353 348/348/348
f 350/350/350 348/348/348 351/351/351
f 273/273/273 352/352/352 346/346/346
f 273/273/273 346/346/346 270/270/270
f 352/352/352 53/53/53 349/349/349
f 352/352/352 349/349/349 346/346/346
f 349/349/349 354/354/354 350/350/350
f 350/350/350 354/354/354 355/355/355
f 350/350/350 355/355/355 353/353/353
f 57/57/57 356/356/356 349/349/349
f 57/57/57 349/349/349 53/53/53
f 356/356/356 354/354/354 349/349/349
f 355/355/355 354/354/354 356/356/356
f 355/355/355 356/356/356 57/57/57
f 357/357/357 360/360/360 358/358/358
f 357/357/357 358/358/358 359/359/359
f 380/380/380 363/363/363 360/360/360
f 380/380/380 360/360/360 357/357/357
f 361/361/361 526/526/526 358/358/358
f 361/361/361 358/358/358 360/360/360
f 360/360/360 363/363/363 362/362/362
f 360/360/360 362/362/362 361/361/361
f 387/387/387 364/364/364 363/363/363
f 387/387/387 363/363/363 380/380/380
f 364/364/364 369/369/369 362/362/362
f 364/364/364 362/362/362 363/363/363
f 365/365/365 366/366/366 361/361/361
f 365/365/365 361/361/361 362/362/362
f 366/366/366 367/367/367 526/526/526
f 366/366/366 526/526/526 361/361/361
f 362/362/362 369/369/369 368/368/368
f 362/362/362 368/368/368 365/365/365
f 370/370/370 372/372/372 369/369/369
f 370/370/370 369/369/369 364/364/364
f 387/387/387 371/371/371 370/370/370
f 387/387/387 370/370/370 364/364/364
f 372/372/372 376/376/376 368/368/368
f 372/372/372 368/368/368 369/369/369
f 373/373/373 374/374/374 365/365/365
f 373/373/373 365/365/365 368/368/368
f 374/374/374 375/375/375 366/366/366
f 374/374/374 366/366/366 365/365/365
f 375/375/375 377/377/377 367/367/367
f 375/375/375 367/367/367 366/366/366
f 376/376/376 383/383/383 373/373/373
f 376/376/376 373/373/373 368/368/368
f 378/378/378 382/382/382 376/376/376
f 378/378/378 376/376/376 372/372/372
f 370/370/370 379/379/379 378/378/378
f 370/370/370 378/378/378 372/372/372
f 371/371/371 392/392/392 379/379/379
f 371/371/371 379/379/379 370/370/370
f 373/373/373 387/387/387 380/380/380
f 373/373/373 380/380/380 374/374/374
f 374/374/374 380/380/380 357/357/357
f 374/374/374 357/357/357 375/375/375
f 359/359/359 377/377/377 375/375/375
f 359/359/359 375/375/375 357/357/357
f 381/381/381 384/384/384 378/378/378
f 381/381/381 378/378/378 379/379/379
f 392/392/392 385/385/385 381/381/381
f 392/392/392 381/381/381 379/379/379
f 382/382/382 389/389/389 383/383/383
f 382/382/382 383/383/383 376/376/376
f 384/384/384 388/388/388 382/382/382
f 384/384/384 382/382/382 378/378/378
f 386/386/386 390/390/390 384/384/384
f 386/386/386 384/384/384 381/381/381
f 385/385/385 391/391/391 386/386/386
f 385/385/385 386/386/386 381/381/381
f 388/388/388 396/396/396 389/389/389
f 388/388/388 389/389/389 382/382/382
f 390/390/390 395/395/395 388/388/388
f 390/390/390 388/388/388 384/384/384
f 371/371/371 387/387/387 373/373/373
f 371/371/371 373/373/373 383/383/383
f 392/392/392 371/371/371 383/383/383
f 392/392/392 383/383/383 389/389/389
f 386/386/386 394/394/394 393/393/393
f 386/386/386 393/393/393 390/390/390
f 391/391/391 403/403/403 394/394/394
f 391/391/391 394/394/394 386/386/386
f 393/393/393 398/398/398 395/395/395
f 393/393/393 395/395/395 390/390/390
f 395/395/395 400/400/400 396/396/396
f 395/395/395 396/396/396 388/388/388
f 385/385/385 392/392/392 389/389/389
f 385/385/385 389/389/389 396/396/396
f 394/394/394 399/399/399 397/397/397
f 394/394/394 397/397/397 393/393/393
f 397/397/397 401/401/401 398/398/398
f 397/397/397 398/398/398 393/393/393
f 403/403/403 408/408/408 399/399/399
f 403/403/403 399/399/399 394/394/394
f 398/398/398 402/402/402 400/400/400
f 398/398/398 400/400/400 395/395/395
f 396/396/396 400/400/400 391/391/391
f 396/396/396 391/391/391 385/385/385
f 401/401/401 409/409/409 402/402/402
f 401/401/401 402/402/402 398/398/398
f 400/400/400 402/402/402 403/403/403
f 400/400/400 403/403/403 391/391/391
f 397/397/397 405/405/405 404/404/404
f 397/397/397 404/404/404 401/401/401
f 399/399/399 406/406/406 405/405/405
f 399/399/399 405/405/405 397/397/397
f 399/399/399 408/408/408 407/407/407
f 399/399/399 407/407/407 406/406/406
f 402/402/402 409/409/409 408/408/408
f 402/402/402 408/408/408 403/403/403
f 410/410/410 409/409/409 401/401/401
f 410/410/410 401/401/401 404/404/404
f 410/410/410 407/407/407 408/408/408
f 410/410/410 408/408/408 409/409/409
f 411/411/411 412/412/412 404/404/404
f 411/411/411 404/404/404 405/405/405
f 406/406/406 413/413/413 411/411/411
f 406/406/406 411/411/411 405/405/405
f 412/412/412 415/415/415 410/410/410
f 412/412/412 410/410/410 404/404/404
f 407/407/407 414/414/414 413/413/413
f 407/407/407 413/413/413 406/406/406
f 414/414/414 407/407/407 410/410/410
f 414/414/414 410/410/410 415/415/415
f 411/411/411 417/417/417 416/416/416
f 411/411/411 416/416/416 412/412/412
f 413/413/413 419/419/419 417/417/417
f 413/413/413 417/417/417 411/411/411
f 418/418/418 415/415/415 412/412/412
f 418/418/418 412/412/412 416/416/416
f 418/418/418 420/420/420 414/414/414
f 418/418/418 414/414/414 415/415/415
f 420/420/420 419/419/419 413/413/413
f 420/420/420 413/413/413 414/414/414
f 421/421/421 422/422/422 416/416/416
f 421/421/421 416/416/416 417/417/417
f 419/419/419 423/423/423 421/421/421
f 419/419/419 421/421/421 417/417/417
f 422/422/422 424/424/424 418/418/418
f 422/422/422 418/418/418 416/416/416
f 420/420/420 425/425/425 423/423/423
f 420/420/420 423/423/423 419/419/419
f 425/425/425 420/420/420 418/418/418
f 425/425/425 418/418/418 424/424/424
f 422/422/422 427/427/427 426/426/426
f 422/422/422 426/426/426 424/424/424
f 426/426/426 430/430/430 425/425/425
f 426/426/426 425/425/425 424/424/424
f 421/421/421 428/428/428 427/427/427
f 421/421/421 427/427/427 422/422/422
f 423/423/423 429/429/429 428/428/428
f 423/423/423 428/428/428 421/421/421
f 430/430/430 429/429/429 423/423/423
f 430/430/430 423/423/423 425/425/425
f 431/431/431 432/432/432 427/427/427
f 431/431/431 427/427/427 428/428/428
f 429/429/429 433/433/433 431/431/431
f 429/429/429 431/431/431 428/428/428
f 432/432/432 434/434/434 426/426/426
f 432/432/432 426/426/426 427/427/427
f 430/430/430 435/435/435 433/433/433
f 430/430/430 433/433/433 429/429/429
f 435/435/435 430/430/430 426/426/426
f 435/435/435 426/426/426 434/434/434
f 432/432/432 437/437/437 436/436/436
f 432/432/432 436/436/436 434/434/434
f 436/436/436 439/439/439 435/435/435
f 436/436/436 435/435/435 434/434/434
f 431/431/431 438/438/438 437/437/437
f 431/431/431 437/437/437 432/432/432
f 433/433/433 440/440/440 438/438/438
f 433/433/433 438/438/438 431/431/431
f 433/433/433 435/435/435 439/439/439
f 433/433/433 439/439/439 440/440/440
f 441/441/441 442/442/442 438/438/438
f 441/441/441 438/438/438 440/440/440
f 439/439/439 445/445/445 441/441/441
f 439/439/439 441/441/441 440/440/440
f 442/442/442 443/443/443 437/437/437
f 442/442/442 437/437/437 438/438/438
f 443/443/443 444/444/444 436/436/436
f 443/443/443 436/436/436 437/437/437
f 445/445/445 439/439/439 436/436/436
f 445/445/445 436/436/436 444/444/444
f 443/443/443 447/447/447 446/446/446
f 443/443/443 446/446/446 444/444/444
f 446/446/446 450/450/450 445/445/445
f 446/446/446 445/445/445 444/444/444
f 442/442/442 448/448/448 447/447/447
f 442/442/442 447/447/447 443/443/443
f 441/441/441 449/449/449 448/448/448
f 441/441/441 448/448/448 442/442/442
f 441/441/441 445/445/445 450/450/450
f 441/441/441 450/450/450 449/449/449
f 451/451/451 452/452/452 448/448/448
f 451/451/451 448/448/448 449/449/449
f 450/450/450 455/455/455 451/451/451
f 450/450/450 451/451/451 449/449/449
f 452/452/452 453/453/453 447/447/447
f 452/452/452 447/447/447 448/448/448
f 453/453/453 454/454/454 446/446/446
f 453/453/453 446/446/446 447/447/447
f 455/455/455 450/450/450 446/446/446
f 455/455/455 446/446/446 454/454/454
f 453/453/453 457/457/457 456/456/456
f 453/453/453 456/456/456 454/454/454
f 456/456/456 459/459/459 455/455/455
f 456/456/456 455/455/455 454/454/454
f 452/452/452 460/460/460 457/457/457
f 452/452/452 457/457/457 453/453/453
f 458/458/458 460/460/460 452/452/452
f 458/458/458 452/452/452 451/451/451
f 451/451/451 455/455/455 459/459/459
f 451/451/451 459/459/459 458/458/458
f 461/461/461 462/462/462 460/460/460
f 461/461/461 460/460/460 458/458/458
f 459/459/459 465/465/465 461/461/461
f 459/459/459 461/461/461 458/458/458
f 462/462/462 463/463/463 457/457/457
f 462/462/462 457/457/457 460/460/460
f 463/463/463 464/464/464 456/456/456
f 463/463/463 456/456/456 457/457/457
f 465/465/465 459/459/459 456/456/456
f 465/465/465 456/456/456 464/464/464
f 463/463/463 467/467/467 466/466/466
f 463/463/463 466/466/466 464/464/464
f 466/466/466 469/469/469 465/465/465
f 466/466/466 465/465/465 464/464/464
f 462/462/462 470/470/470 467/467/467
f 462/462/462 467/467/467 463/463/463
f 468/468/468 470/470/470 462/462/462
f 468/468/468 462/462/462 461/461/461
f 461/461/461 465/465/465 469/469/469
f 461/461/461 469/469/469 468/468/468
f 471/471/471 472/472/472 470/470/470
f 471/471/471 470/470/470 468/468/468
f 469/469/469 475/475/475 471/471/471
f 469/469/469 471/471/471 468/468/468
f 472/472/472 473/473/473 467/467/467
f 472/472/472 467/467/467 470/470/470
f 473/473/473 474/474/474 466/466/466
f 473/473/473 466/466/466 467/467/467
f 475/475/475 469/469/469 466/466/466
f 475/475/475 466/466/466 474/474/474
f 473/473/473 477/477/477 476/476/476
f 473/473/473 476/476/476 474/474/474
f 476/476/476 480/480/480 475/475/475
f 476/476/476 475/475/475 474/474/474
f 472/472/472 479/479/479 477/477/477
f 472/472/472 477/477/477 473/473/473
f 478/478/478 479/479/479 472/472/472
f 478/478/478 472/472/472 471/471/471
f 471/471/471 475/475/475 480/480/480
f 471/471/471 480/480/480 478/478/478
f 481/481/481 482/482/482 479/479/479
f 481/481/481 479/479/479 478/478/478
f 480/480/480 485/485/485 481/481/481
f 480/480/480 481/481/481 478/478/478
f 482/482/482 483/483/483 477/477/477
f 482/482/482 477/477/477 479/479/479
f 483/483/483 484/484/484 476/476/476
f 483/483/483 476/476/476 477/477/477
f 485/485/485 480/480/480 476/476/476
f 485/485/485 476/476/476 484/484/484
f 483/483/483 487/487/487 486/486/486
f 483/483/483 486/486/486 484/484/484
f 486/486/486 490/490/490 485/485/485
f 486/486/486 485/485/485 484/484/484
f 482/482/482 489/489/489 487/487/487
f 482/482/482 487/487/487 483/483/483
f 488/488/488 489/489/489 482/482/482
f 488/488/488 482/482/482 481/481/481
f 481/481/481 485/485/485 490/490/490
f 481/481/481 490/490/490 488/488/488
f 487/487/487 492/492/492 491/491/491
f 487/487/487 491/491/491 486/486/486
f 491/491/491 493/493/493 490/490/490
f 491/491/491 490/490/490 486/486/486
f 489/489/489 495/495/495 492/492/492
f 489/489/489 492/492/492 487/487/487
f 493/493/493 494/494/494 488/488/488
f 493/493/493 488/488/488 490/490/490
f 494/494/494 495/495/495 489/489/489
f 494/494/494 489/489/489 488/488/488
f 492/492/492 497/497/497 496/496/496
f 492/492/492 496/496/496 491/491/491
f 496/496/496 498/498/498 493/493/493
f 496/496/496 493/493/493 491/491/491
f 495/495/495 499/499/499 497/497/497
f 495/495/495 497/497/497 492/492/492
f 498/498/498 500/500/500 494/494/494
f 498/498/498 494/494/494 493/493/493
f 494/494/494 500/500/500 499/499/499
f 494/494/494 499/499/499 495/495/495
f 497/497/497 502/502/502 501/501/501
f 497/497/497 501/501/501 496/496/496
f 501/501/501 504/504/504 498/498/498
f 501/501/501 498/498/498 496/496/496
f 499/499/499 503/503/503 502/502/502
f 499/499/499 502/502/502 497/497/497
f 500/500/500 505/505/505 503/503/503
f 500/500/500 503/503/503 499/499/499
f 504/504/504 505/505/505 500/500/500
f 504/504/504 500/500/500 498/498/498
f 502/502/502 507/507/507 506/506/506
f 502/502/502 506/506/506 501/501/501
f 506/506/506 510/510/510 504/504/504
f 506/506/506 504/504/504 501/501/501
f 503/503/503 509/509/509 507/507/507
f 503/503/503 507/507/507 502/502/502
f 510/510/510 508/508/508 505/505/505
f 510/510/510 505/505/505 504/504/504
f 508/508/508 509/509/509 503/503/503
f 508/508/508 503/503/503 505/505/505
f 507/507/507 512/512/512 511/511/511
f 507/507/507 511/511/511 506/506/506
f 511/511/511 513/513/513 510/510/510
f 511/511/511 510/510/510 506/506/506
f 509/509/509 514/514/514 512/512/512
f 509/509/509 512/512/512 507/507/507
f 513/513/513 515/515/515 508/508/508
f 513/513/513 508/508/508 510/510/510
f 508/508/508 515/515/515 514/514/514
f 508/508/508 514/514/514 509/509/509
f 516/516/516 517/517/517 512/512/512
f 516/516/516 512/512/512 514/514/514
f 515/515/515 518/518/518 516/516/516
f 515/515/515 516/516/516 514/514/514
f 517/517/517 519/519/519 511/511/511
f 517/517/517 511/511/511 512/512/512
f 513/513/513 520/520/520 518/518/518
f 513/513/513 518/518/518 515/515/515
f 511/511/511 519/519/519 520/520/520
f 511/511/511 520/520/520 513/513/513
f 521/521/521 522/522/522 516/516/516
f 521/521/521 516/516/516 518/518/518
f 520/520/520 524/524/524 521/521/521
f 520/520/520 521/521/521 518/518/518
f 522/522/522 523/523/523 517/517/517
f 522/522/522 517/517/517 516/516/516
f 523/523/523 525/525/525 519/519/519
f 523/523/523 519/519/519 517/517/517
f 530/530/530 527/527/527 522/522/522
f 530/530/530 522/522/522 521/521/521
f 524/524/524 531/531/531 530/530/530
f 524/524/524 530/530/530 521/521/521
f 519/519/519 525/525/525 524/524/524
f 519/519/519 524/524/524 520/520/520
f 527/527/527 529/529/529 523/523/523
f 527/527/527 523/523/523 522/522/522
f 529/529/529 528/528/528 525/525/525
f 529/529/529 525/525/525 523/523/523
f 525/525/525 528/528/528 531/531/531
f 525/525/525 531/531/531 524/524/524
f 377/377/377 526/526/526 367/367/367
f 377/377/377 359/359/359 358/358/358
f 377/377/377 358/358/358 526/526/526
f 529/529/529 527/527/527 528/528/528
f 530/530/530 531/531/531 528/528/528
f 530/530/530 528/528/528 527/527/527
f 254/254/254 83/83/83 252/252/252
f 254/254/254 252/252/252 256/256/256
f 256/256/256 252/252/252 84/84/84
f 256/256/256 84/84/84 81/81/81
f 81/81/81 84/84/84 250/250/250
f 81/81/81 250/250/250 82/82/82
f 82/82/82 250/250/250 248/248/248
f 82/82/82 248/248/248 78/78/78
f 78/78/78 248/248/248 246/246/246
f 78/78/78 246/246/246 80/80/80
f 80/80/80 246/246/246 244/244/244
f 80/80/80 244/244/244 79/79/79
f 239/239/239 75/75/75 260/260/260
f 239/239/239 260/260/260 240/240/240
f 233/233/233 263/263/263 75/75/75
f 233/233/233 75/75/75 239/239/239
f 67/67/67 77/77/77 263/263/263
f 67/67/67 263/263/263 233/233/233
f 66/66/66 272/272/272 77/77/77
f 66/66/66 77/77/77 67/67/67
f 230/230/230 74/74/74 272/272/272
f 230/230/230 272/272/272 66/66/66
f 68/68/68 76/76/76 74/74/74
f 68/68/68 74/74/74 230/230/230
f 76/76/76 68/68/68 69/69/69
f 76/76/76 69/69/69 277/277/277
f 227/227/227 70/70/70 73/73/73
f 227/227/227 73/73/73 229/229/229
f 71/71/71 72/72/72 70/70/70
f 71/71/71 70/70/70 227/227/227
f 225/225/225 281/281/281 72/72/72
f 225/225/225 72/72/72 71/71/71
f 284/284/284 283/283/283 281/281/281
f 284/284/284 281/281/281 225/225/225
f 141/141/141 190/190/190 149/149/149
f 141/141/141 149/149/149 191/191/191
f 191/191/191 149/149/149 155/155/155
f 191/191/191 155/155/155 128/128/128
f 191/191/191 128/128/128 192/192/192
f 128/128/128 155/155/155 159/159/159
f 128/128/128 159/159/159 188/188/188
f 188/188/188 159/159/159 189/189/189
f 188/188/188 189/189/189 186/186/186
f 186/186/186 189/189/189 169/169/169
f 186/186/186 169/169/169 187/187/187
f 179/179/179 185/185/185 111/111/111
f 179/179/179 111/111/111 175/175/175
f 193/193/193 105/105/105 185/185/185
f 193/193/193 185/185/185 179/179/179
f 105/105/105 193/193/193 213/213/213
f 105/105/105 213/213/213 100/100/100
f 100/100/100 213/213/213 212/212/212
f 100/100/100 212/212/212 184/184/184
f 194/194/194 307/307/307 218/218/218
f 194/194/194 218/218/218 214/214/214
f 17/17/17 221/221/221 307/307/307
f 17/17/17 307/307/307 194/194/194
f 216/216/216 217/217/217 221/221/221
f 216/216/216 221/221/221 17/17/17
f 7/7/7 317/317/317 217/217/217
f 7/7/7 217/217/217 216/216/216
f 215/215/215 223/223/223 317/317/317
f 215/215/215 317/317/317 7/7/7
f 223/223/223 215/215/215 220/220/220
f 223/223/223 220/220/220 330/330/330
f 223/223/223 330/330/330 224/224/224
f 219/219/219 222/222/222 330/330/330
f 219/219/219 330/330/330 220/220/220
